<?xml version="1.0" encoding="UTF-8"?>
<svg width="23px" height="20px" viewBox="0 0 23 20" version="1.1" xmlns="http://www.w3.org/2000/svg" xmlns:xlink="http://www.w3.org/1999/xlink">
    <!-- Generator: Sketch 52.6 (67491) - http://www.bohemiancoding.com/sketch -->
    <title>text</title>
    <desc>Created with Sketch.</desc>
    <g id="Page-1" stroke="none" stroke-width="1" fill="none" fill-rule="evenodd">
        <g id="text">
            <path d="M8.00001,3 L21.50001,3 C22.33102,3 23.00002,3.669 23.00002,4.5 L23.00002,18.5 C23.00002,19.331 22.33102,20 21.50001,20 L12.00001,20 L8.00001,3 Z" id="Path" fill="#E6E7E8"></path>
            <path d="M12.1594501,14 L23,14 C23,14.7897003 23,16.4563753 23,19.0000252 L22.9999748,19.0000252 C22.9999748,19.5522961 22.5522708,20 22,20 L12.0329015,20 L11.6489078,18.3701567 L11.1702952,15.1468758 C11.0891779,14.6005806 11.4662791,14.0919623 12.0125743,14.0108451 C12.0611998,14.0036248 12.1102915,14 12.1594501,14 Z" id="Rectangle" fill="#B20B0B"></path>
            <polygon id="Path" fill="#376AD7" points="15.00672 17.0078 12.00001 20 11.29443 17.0013"></polygon>
            <rect id="Rectangle" fill="#3F7E0C" x="10" y="8" width="13" height="6"></rect>
            <path d="M15.00001,17 L1.50001,17 C0.669,17 0,16.331 0,15.5 L0,1.5 C0,0.669 0.669,0 1.50001,0 L11.00001,0 L15.00001,17 Z" id="Path" fill="#518FF5"></path>
            <path d="M2.15961866,12 L2.15961866,7.10888672 L3.71528272,7.10888672 L3.71528272,12 L2.15961866,12 Z M7.48092416,12 L5.87252572,12 L5.87252572,9.8203125 L3.68404916,5.65869141 L5.40231088,5.65869141 L6.63717416,8.24707031 L6.72067025,8.24707031 L7.94674447,5.65869141 L9.66500619,5.65869141 L7.48092416,9.8203125 L7.48092416,12 Z M9.62937809,12 L9.62937809,7.10888672 L11.1850422,7.10888672 L11.1850422,12 L9.62937809,12 Z" id="ıYı" fill="#E6E7E8"></path>
        </g>
    </g>
</svg>