<?xml version="1.0" encoding="UTF-8"?>
<svg width="272px" height="62px" viewBox="0 0 272 62" version="1.1" xmlns="http://w3.org/2000/svg" xmlns:xlink="http://w3.org/1999/xlink">
    <title>Artboard</title>
    <defs>
        <linearGradient x1="99.3194264%" y1="33.149863%" x2="0%" y2="33.149863%" id="linearGradient-1">
            <stop stop-color="#74C6FF" offset="0%"></stop>
            <stop stop-color="#9C8F60" offset="100%"></stop>
        </linearGradient>
        <path d="M259.152807,31 C259.17676,31.110211 259.187815,31.2470247 259.187815,31.3819382 C259.187815,32.3548355 258.782459,33.3277328 258.209434,34.0289029 C257.6014,34.8060806 256.549318,35.3837384 255.712812,35.3837384 C255.617,35.3837384 255.521189,35.370437 255.462228,35.3590359 C255.451173,35.3115312 255.42722,35.1633163 255.42722,35.0151015 C255.42722,34.0289029 255.917332,33.0560056 256.442452,32.440344 C257.111289,31.640364 258.220489,31.0361036 259.152807,31 Z M242.681892,11.3795812 C243.727633,11.3795812 244.675588,11.6544475 245.525784,12.2041885 C246.37598,12.7539295 246.988112,13.4869064 247.362199,14.4031414 L247.515233,14.4031414 L247.515233,11.6151832 L249.122096,11.6151832 L249.122096,25.921466 C249.122096,27.4572503 248.577979,28.6876045 247.489727,29.6125654 C246.401476,30.5375264 244.956164,31 243.153748,31 C241.589387,31 240.309861,30.6705967 239.315131,30.0117801 C238.320402,29.3529635 237.733775,28.4694645 237.555234,27.3612565 L239.327884,27.3612565 C239.480919,28.0157101 239.897509,28.5349021 240.577666,28.9188482 C241.257823,29.3027942 242.116509,29.4947644 243.153748,29.4947644 C244.480054,29.4947644 245.527906,29.1631796 246.297333,28.5 C247.066761,27.8368204 247.451469,26.9336881 247.451469,25.7905759 L247.451469,22.6230366 L247.285681,22.6230366 C246.877587,23.5567237 246.271831,24.2809747 245.468396,24.7958115 C244.664961,25.3106483 243.736135,25.5680628 242.681892,25.5680628 C240.921985,25.5680628 239.517057,24.9201635 238.467065,23.6243455 C237.417072,22.3285276 236.892084,20.6160665 236.892084,18.486911 C236.892084,16.3577555 237.419198,14.6409315 238.473441,13.3363874 C239.527685,12.0318434 240.930487,11.3795812 242.681892,11.3795812 Z M195.140523,6.94240838 C197.121481,6.94240838 198.887737,7.35252644 200.439345,8.17277487 C201.990953,8.9930233 203.196088,10.1426628 204.054787,11.6217277 C204.913485,13.1007927 205.342828,14.787076 205.342828,16.6806283 C205.342828,18.7923317 204.943241,20.4589817 204.144057,21.6806283 C203.344872,22.9022749 202.252387,23.513089 200.866567,23.513089 C200.075884,23.513089 199.414866,23.2905781 198.883494,22.8455497 C198.352121,22.4005213 198.052431,21.8202479 197.984416,21.104712 L197.818628,21.104712 C197.529562,21.846426 197.100219,22.4179736 196.530587,22.8193717 C195.960956,23.2207699 195.289311,23.421466 194.515632,23.421466 C193.197828,23.421466 192.126597,22.9109999 191.301906,21.8900524 C190.477216,20.8691048 190.064877,19.5384026 190.064877,17.8979058 C190.064877,16.2923131 190.479342,14.9834257 191.308283,13.9712042 C192.137224,12.9589827 193.20633,12.4528796 194.515632,12.4528796 C195.229797,12.4528796 195.875937,12.6448497 196.45407,13.0287958 C197.032204,13.4127419 197.440292,13.923208 197.678347,14.5602094 L197.844134,14.5602094 L197.844134,12.7146597 L199.323468,12.7146597 L199.323468,20.2408377 C199.323468,20.8691131 199.478627,21.3490385 199.788948,21.6806283 C200.09927,22.0122181 200.543491,22.1780105 201.121624,22.1780105 C201.997326,22.1780105 202.685975,21.6849962 203.187591,20.6989529 C203.689207,19.7129096 203.940011,18.3647555 203.940011,16.6544503 C203.940011,15.0139534 203.56593,13.5545439 202.817757,12.276178 C202.069585,10.9978121 201.019608,10.0052391 199.667796,9.29842932 C198.315984,8.5916195 196.76865,8.2382199 195.025748,8.2382199 C193.741951,8.2382199 192.543192,8.47818259 191.429435,8.95811518 C190.315678,9.43804777 189.363473,10.1012174 188.57279,10.947644 C187.782108,11.7940705 187.161474,12.8128213 186.71087,14.0039267 C186.260266,15.1950321 186.034967,16.4799233 186.034967,17.8586387 C186.034967,20.7469603 186.8809,23.0680541 188.57279,24.8219895 C190.264681,26.575925 192.500663,27.4528796 195.280805,27.4528796 C197.176743,27.4528796 198.588047,27.2609094 199.514761,26.8769634 L199.514761,28.1727749 C198.392502,28.5567209 196.976947,28.7486911 195.268052,28.7486911 C192.05431,28.7486911 189.48038,27.7517552 187.546183,25.7578534 C185.611987,23.7639516 184.644903,21.1134546 184.644903,17.8062827 C184.644903,15.6945793 185.086998,13.8141444 185.971203,12.1649215 C186.855407,10.5156986 188.094549,9.23298887 189.688667,8.31675393 C191.282785,7.40051898 193.100052,6.94240838 195.140523,6.94240838 Z M85.4268953,10.8036649 C87.3908487,10.8036649 88.9020499,11.1854238 89.9605442,11.9489529 C91.0190386,12.712482 91.590787,13.8272178 91.6758066,15.2931937 L87.5693792,15.2931937 C87.5013635,14.8656174 87.2845667,14.5318511 86.9189823,14.2918848 C86.5533979,14.0519185 86.0687933,13.9319372 85.4651539,13.9319372 C84.8785185,13.9319372 84.4002903,14.0519185 84.0304549,14.2918848 C83.6606195,14.5318511 83.4757046,14.8481656 83.4757046,15.2408377 C83.4757046,15.5462493 83.6053576,15.7971194 83.8646675,15.9934555 C84.1239773,16.1897916 84.5384418,16.3490395 85.1080733,16.4712042 L88.0412357,17.0863874 C89.4440596,17.3917991 90.4621543,17.8608171 91.0955505,18.4934555 C91.7289468,19.1260939 92.0456401,19.9921411 92.0456401,21.091623 C92.0456401,22.6012292 91.4505117,23.8054056 90.2602369,24.7041885 C89.0699621,25.6029713 87.4801189,26.052356 85.4906597,26.052356 C83.4586906,26.052356 81.8752238,25.6662342 80.7402118,24.8939791 C79.6051998,24.1217239 78.9739385,23.0026251 78.8464091,21.5366492 L83.1951412,21.5366492 C83.4331962,22.4616102 84.2196159,22.9240838 85.5544241,22.9240838 C86.1750674,22.9240838 86.6702993,22.8062839 87.0401346,22.5706806 C87.40997,22.3350774 87.5948849,22.0209444 87.5948849,21.6282723 C87.5948849,21.3228606 87.4779847,21.0785349 87.2441807,20.895288 C87.0103767,20.712041 86.608665,20.5593374 86.0390335,20.4371728 L83.3991873,19.8612565 C80.5935396,19.2504332 79.1907369,17.8062941 79.1907369,15.5287958 C79.1907369,14.080272 79.751858,12.9306325 80.874117,12.0798429 C81.9963761,11.2290533 83.5139537,10.8036649 85.4268953,10.8036649 Z M176.538779,11.3795812 C178.14565,11.3795812 179.389043,11.7875177 180.268996,12.6034031 C181.148949,13.4192885 181.588919,14.5645651 181.588919,16.039267 L181.588919,25.7120419 L179.982056,25.7120419 L179.982056,23.2905759 L179.829022,23.2905759 C179.412425,24.1282764 178.804544,24.7805387 178.00536,25.2473822 C177.206175,25.7142257 176.30073,25.947644 175.288996,25.947644 C173.928682,25.947644 172.817067,25.5702481 171.954118,24.815445 C171.091169,24.060642 170.659701,23.0593431 170.659701,21.8115183 C170.659701,20.5898717 171.084793,19.6278395 171.934989,18.9253927 C172.785185,18.2229459 174.009449,17.8150093 175.607818,17.7015707 L179.905539,17.4136126 L179.905539,16.052356 C179.905539,15.0401346 179.614351,14.263528 179.031967,13.7225131 C178.449582,13.1814982 177.601524,12.9109948 176.487767,12.9109948 C175.544049,12.9109948 174.751253,13.1051464 174.109355,13.4934555 C173.467457,13.8817646 173.065745,14.416227 172.904208,15.0968586 L171.208075,15.0968586 C171.369612,13.9799246 171.937109,13.0811552 172.910584,12.4005236 C173.884059,11.7198919 175.093445,11.3795812 176.538779,11.3795812 Z M142.816825,6 L142.816825,14.3507853 L142.96986,14.3507853 C143.352448,13.4345504 143.960329,12.7102993 144.793522,12.1780105 C145.626714,11.6457216 146.561916,11.3795812 147.599155,11.3795812 C149.342058,11.3795812 150.740609,12.0427508 151.794853,13.3691099 C152.849096,14.6954691 153.37621,16.4581042 153.37621,18.6570681 C153.37621,20.8473059 152.846971,22.609941 151.788476,23.9450262 C150.729982,25.2801114 149.333556,25.947644 147.599155,25.947644 C146.544912,25.947644 145.601208,25.6771406 144.768016,25.1361257 C143.934823,24.5951107 143.31419,23.8490449 142.906095,22.8979058 L142.740308,22.8979058 L142.740308,25.7120419 L141.146198,25.7120419 L141.146198,6 L142.816825,6 Z M213.576481,11.3795812 C215.404403,11.3795812 216.845464,12.0034842 217.899707,13.2513089 C218.953951,14.4991336 219.481064,16.2006873 219.481064,18.3560209 L219.481064,19.1151832 L209.163984,19.1151832 L209.163984,19.1937173 C209.206494,20.7905839 209.62946,22.0602047 210.432896,23.0026178 C211.236331,23.9450309 212.301186,24.4162304 213.627492,24.4162304 C214.596716,24.4162304 215.421394,24.2264417 216.101551,23.8468586 C216.781708,23.4672756 217.270564,22.9284503 217.568132,22.2303665 L219.264265,22.2303665 C218.924187,23.3822047 218.252542,24.2897 217.24931,24.9528796 C216.246079,25.6160592 215.026065,25.947644 213.589234,25.947644 C211.701798,25.947644 210.205475,25.2910188 209.10022,23.9777487 C207.994965,22.6644786 207.442345,20.8952991 207.442345,18.6701571 C207.442345,16.4537411 207.99709,14.6845616 209.106596,13.3625654 C210.216102,12.0405693 211.706049,11.3795812 213.576481,11.3795812 Z M110.688982,11.3795812 C112.295853,11.3795812 113.539246,11.7875177 114.419199,12.6034031 C115.299152,13.4192885 115.739122,14.5645651 115.739122,16.039267 L115.739122,25.7120419 L114.132259,25.7120419 L114.132259,23.2905759 L113.979225,23.2905759 C113.562629,24.1282764 112.954747,24.7805387 112.155563,25.2473822 C111.356378,25.7142257 110.450933,25.947644 109.439199,25.947644 C108.078885,25.947644 106.967271,25.5702481 106.104321,24.815445 C105.241372,24.060642 104.809904,23.0593431 104.809904,21.8115183 C104.809904,20.5898717 105.234996,19.6278395 106.085192,18.9253927 C106.935388,18.2229459 108.159652,17.8150093 109.758021,17.7015707 L114.055742,17.4136126 L114.055742,16.052356 C114.055742,15.0401346 113.764554,14.263528 113.18217,13.7225131 C112.599785,13.1814982 111.751727,12.9109948 110.63797,12.9109948 C109.694252,12.9109948 108.901456,13.1051464 108.259558,13.4934555 C107.61766,13.8817646 107.215948,14.416227 107.054411,15.0968586 L105.358278,15.0968586 C105.519815,13.9799246 106.087313,13.0811552 107.060787,12.4005236 C108.034262,11.7198919 109.243648,11.3795812 110.688982,11.3795812 Z M233.912617,6 L233.912617,25.7120419 L232.305755,25.7120419 L232.305755,22.8979058 L232.15272,22.8979058 C231.744626,23.8403188 231.121866,24.5842032 230.284423,25.1295812 C229.44698,25.6749591 228.505401,25.947644 227.45966,25.947644 C225.708256,25.947644 224.301202,25.2822929 223.238457,23.9515707 C222.175711,22.6208485 221.644347,20.8603949 221.644347,18.6701571 C221.644347,16.4886453 222.177837,14.7281917 223.244833,13.3887435 C224.311829,12.0492952 225.716758,11.3795812 227.45966,11.3795812 C228.505401,11.3795812 229.440603,11.6457216 230.265294,12.1780105 C231.089984,12.7102993 231.697865,13.4389134 232.088956,14.3638743 L232.24199,14.3638743 L232.24199,6 L233.912617,6 Z M258.095416,11.3795812 C259.923338,11.3795812 261.364399,12.0034842 262.418643,13.2513089 C263.472886,14.4991336 264,16.2006873 264,18.3560209 L264,19.1151832 L253.68292,19.1151832 L253.68292,19.1937173 C253.72543,20.7905839 254.148396,22.0602047 254.951831,23.0026178 C255.755267,23.9450309 256.820122,24.4162304 258.146428,24.4162304 C259.115652,24.4162304 259.94033,24.2264417 260.620487,23.8468586 C261.300644,23.4672756 261.789499,22.9284503 262.087068,22.2303665 L263.783201,22.2303665 C263.443123,23.3822047 262.771478,24.2897 261.768246,24.9528796 C260.765014,25.6160592 259.545001,25.947644 258.108169,25.947644 C256.220734,25.947644 254.724411,25.2910188 253.619155,23.9777487 C252.5139,22.6644786 251.961281,20.8952991 251.961281,18.6701571 C251.961281,16.4537411 252.516026,14.6845616 253.625532,13.3625654 C254.735038,12.0405693 256.224985,11.3795812 258.095416,11.3795812 Z M167.79501,6 L167.79501,25.7120419 L166.188147,25.7120419 L166.188147,22.8979058 L166.035113,22.8979058 C165.627018,23.8403188 165.004259,24.5842032 164.166816,25.1295812 C163.329372,25.6749591 162.387794,25.947644 161.342053,25.947644 C159.590648,25.947644 158.183595,25.2822929 157.120849,23.9515707 C156.058104,22.6208485 155.526739,20.8603949 155.526739,18.6701571 C155.526739,16.4886453 156.060229,14.7281917 157.127226,13.3887435 C158.194222,12.0492952 159.59915,11.3795812 161.342053,11.3795812 C162.387794,11.3795812 163.322996,11.6457216 164.147686,12.1780105 C164.972377,12.7102993 165.580258,13.4389134 165.971348,14.3638743 L166.124383,14.3638743 L166.124383,6 L167.79501,6 Z M49.0650956,10.8036649 C51.0205471,10.8036649 52.5338737,11.2399607 53.605121,12.1125654 C54.6763683,12.9851702 55.2119839,14.2067984 55.2119839,15.7774869 L55.2119839,25.7120419 L50.8249931,25.7120419 L50.8249931,23.9057592 L50.5826884,23.9057592 C50.2681158,24.5253085 49.7495038,25.0183228 49.026837,25.3848168 C48.3041702,25.7513107 47.4922449,25.934555 46.5910369,25.934555 C45.2222209,25.934555 44.1148569,25.5309813 43.2689116,24.723822 C42.4229663,23.9166626 42,22.8499194 42,21.5235602 C42,20.197201 42.4867301,19.1566355 43.4602048,18.4018325 C44.4336795,17.6470294 45.8386078,17.2129151 47.6750317,17.0994764 L50.7739816,16.9162304 L50.7739816,15.7774869 C50.7739816,15.2801022 50.6018194,14.8939804 50.2574899,14.6191099 C49.9131605,14.3442395 49.4306813,14.2068063 48.810038,14.2068063 C47.6112613,14.2068063 46.8630998,14.5994725 46.5655311,15.3848168 L42.5101152,15.3848168 C42.6121388,13.9711971 43.2497764,12.8542798 44.4230472,12.0340314 C45.5963181,11.213783 47.1436521,10.8036649 49.0650956,10.8036649 Z M133.256872,11.3795812 C134.63419,11.3795812 135.703296,11.7875177 136.464222,12.6034031 C137.225147,13.4192885 137.605605,14.573291 137.605605,16.065445 L137.605605,25.7120419 L135.934977,25.7120419 L135.934977,16.4581152 C135.934977,15.306277 135.665044,14.4293224 135.125169,13.8272251 C134.585295,13.2251279 133.796749,12.9240838 132.75951,12.9240838 C131.713769,12.9240838 130.863585,13.2883908 130.208934,14.0170157 C129.554283,14.7456406 129.226962,15.6640433 129.226962,16.7722513 L129.226962,25.7120419 L127.556335,25.7120419 L127.556335,16.2748691 C127.556335,15.2626476 127.267272,14.4511374 126.689139,13.8403141 C126.111006,13.2294908 125.34584,12.9240838 124.393621,12.9240838 C123.398891,12.9240838 122.56146,13.3254759 121.881303,14.1282723 C121.201146,14.9310686 120.861073,15.9083712 120.861073,17.0602094 L120.861073,25.7120419 L119.190445,25.7120419 L119.190445,11.6151832 L120.784555,11.6151832 L120.784555,14.1544503 L120.950343,14.1544503 C121.247912,13.2905716 121.747394,12.6121316 122.448806,12.1191099 C123.150218,11.6260883 123.972771,11.3795812 124.916489,11.3795812 C125.860207,11.3795812 126.670006,11.6260883 127.345912,12.1191099 C128.021818,12.6121316 128.508548,13.2905716 128.806117,14.1544503 L128.971905,14.1544503 C129.328987,13.2992976 129.887983,12.6230391 130.648908,12.1256545 C131.409834,11.6282698 132.279147,11.3795812 133.256872,11.3795812 Z M101.945213,6 L101.945213,25.7120419 L100.274586,25.7120419 L100.274586,6 L101.945213,6 Z M61.0608486,11.1439791 L62.8334989,21.1308901 L63.0758036,21.1308901 L65.2182875,11.1439791 L69.5160081,11.1439791 L71.6839978,21.1308901 L71.9263025,21.1308901 L73.6989529,11.1439791 L78.1624609,11.1439791 L74.4896314,25.7120419 L69.6307841,25.7120419 L67.4117829,16.117801 L67.1694782,16.117801 L64.9759828,25.7120419 L60.1936527,25.7120419 L56.4953174,11.1439791 L61.0608486,11.1439791 Z M179.905539,18.8141361 L175.83737,19.1151832 C173.533338,19.2809781 172.38134,20.1710216 172.38134,21.7853403 C172.38134,22.5881366 172.678904,23.2294915 173.274041,23.7094241 C173.869179,24.1893567 174.634344,24.4293194 175.56956,24.4293194 C176.802344,24.4293194 177.833192,24.0475605 178.662133,23.2840314 C179.491074,22.5205023 179.905539,21.5802848 179.905539,20.4633508 L179.905539,18.8141361 Z M114.055742,18.8141361 L109.987573,19.1151832 C107.683541,19.2809781 106.531543,20.1710216 106.531543,21.7853403 C106.531543,22.5881366 106.829107,23.2294915 107.424244,23.7094241 C108.019382,24.1893567 108.784547,24.4293194 109.719763,24.4293194 C110.952547,24.4293194 111.983395,24.0475605 112.812336,23.2840314 C113.641278,22.5205023 114.055742,21.5802848 114.055742,20.4633508 L114.055742,18.8141361 Z M227.816741,12.9240838 C226.456427,12.9240838 225.374568,13.4432758 224.571133,14.4816754 C223.767697,15.520075 223.365985,16.9118586 223.365985,18.6570681 C223.365985,20.4110035 223.767697,21.8049687 224.571133,22.8390052 C225.374568,23.8730418 226.456427,24.3900524 227.816741,24.3900524 C229.168553,24.3900524 230.248286,23.8708603 231.055972,22.8324607 C231.863659,21.7940611 232.267496,20.4022775 232.267496,18.6570681 C232.267496,16.9293107 231.861533,15.5418901 231.049596,14.4947644 C230.237658,13.4476387 229.160051,12.9240838 227.816741,12.9240838 Z M161.699133,12.9240838 C160.338819,12.9240838 159.256961,13.4432758 158.453525,14.4816754 C157.65009,15.520075 157.248378,16.9118586 157.248378,18.6570681 C157.248378,20.4110035 157.65009,21.8049687 158.453525,22.8390052 C159.256961,23.8730418 160.338819,24.3900524 161.699133,24.3900524 C163.050945,24.3900524 164.130678,23.8708603 164.938365,22.8324607 C165.746051,21.7940611 166.149889,20.4022775 166.149889,18.6570681 C166.149889,16.9293107 165.743926,15.5418901 164.931989,14.4947644 C164.120051,13.4476387 163.042443,12.9240838 161.699133,12.9240838 Z M147.254827,12.9240838 C145.903015,12.9240838 144.819031,13.4454573 144.002843,14.4882199 C143.186655,15.5309825 142.778566,16.9205847 142.778566,18.6570681 C142.778566,20.3935514 143.186655,21.7831536 144.002843,22.8259162 C144.819031,23.8686789 145.903015,24.3900524 147.254827,24.3900524 C148.60664,24.3900524 149.677871,23.8730418 150.468553,22.8390052 C151.259236,21.8049687 151.654571,20.4066406 151.654571,18.6439791 C151.654571,16.8900436 151.259236,15.4982599 150.468553,14.4685864 C149.677871,13.4389128 148.60664,12.9240838 147.254827,12.9240838 Z M243.013467,12.9240838 C241.653153,12.9240838 240.579796,13.4280054 239.793364,14.4358639 C239.006933,15.4437223 238.613723,16.7940579 238.613723,18.486911 C238.613723,20.1710381 239.006933,21.5170107 239.793364,22.5248691 C240.579796,23.5327276 241.653153,24.0366492 243.013467,24.0366492 C244.382283,24.0366492 245.468392,23.534909 246.271827,22.5314136 C247.075263,21.5279182 247.476975,20.1884901 247.476975,18.513089 C247.476975,16.8289619 247.071012,15.4764449 246.259075,14.4554974 C245.447137,13.4345499 244.365279,12.9240838 243.013467,12.9240838 Z M50.7739816,19.5209424 L48.389193,19.6780105 C47.7260399,19.7303668 47.2201807,19.8874332 46.8716002,20.1492147 C46.5230198,20.4109961 46.3487322,20.7600327 46.3487322,21.1963351 C46.3487322,21.6588156 46.5208943,22.0253041 46.8652238,22.2958115 C47.2095533,22.566319 47.6665269,22.7015707 48.2361584,22.7015707 C48.9503233,22.7015707 49.5518281,22.4877857 50.040691,22.0602094 C50.5295538,21.6326331 50.7739816,21.1047152 50.7739816,20.4764398 L50.7739816,19.5209424 Z M194.732431,13.8534031 C193.797215,13.8534031 193.046928,14.2264361 192.481548,14.9725131 C191.916167,15.7185901 191.633481,16.7068001 191.633481,17.9371728 C191.633481,19.1762715 191.914042,20.1623 192.475171,20.895288 C193.036301,21.6282759 193.784462,21.9947644 194.719678,21.9947644 C195.663396,21.9947644 196.415809,21.61955 196.976938,20.8691099 C197.538068,20.1186699 197.818628,19.1195525 197.818628,17.8717277 C197.818628,16.6413551 197.540193,15.6640525 196.983315,14.9397906 C196.426436,14.2155287 195.676149,13.8534031 194.732431,13.8534031 Z M213.563728,12.8979058 C212.313939,12.8979058 211.289468,13.336383 210.490284,14.2133508 C209.691099,15.0903185 209.253255,16.2530469 209.176737,17.7015707 L217.73392,17.7015707 C217.716916,16.2443208 217.327957,15.079411 216.567031,14.2068063 C215.806106,13.3342016 214.805015,12.8979058 213.563728,12.8979058 Z M258.082664,12.8979058 C256.832875,12.8979058 255.808404,13.336383 255.009219,14.2133508 C254.210035,15.0903185 253.77219,16.2530469 253.695673,17.7015707 L262.252855,17.7015707 C262.235851,16.2443208 261.846893,15.079411 261.085967,14.2068063 C260.325041,13.3342016 259.32395,12.8979058 258.082664,12.8979058 Z M47.9079999,48.3871303 C47.088475,48.3871303 46.3124214,48.2381956 45.5798158,47.9403217 C44.8472102,47.6424479 44.2201589,47.2380237 43.6986431,46.7270368 C43.1771273,46.21605 42.7636459,45.6045702 42.4581866,44.8925791 C42.1527273,44.180588 42,43.4225953 42,42.6185781 C42,41.5433262 42.2582706,40.5649586 42.7748197,39.6834458 C43.2913687,38.801933 44.0016129,38.1093262 44.9055737,37.6056046 C45.8095345,37.101883 46.8103332,36.8500259 47.9079999,36.8500259 C48.7324916,36.8500259 49.5110285,36.9977498 50.2436341,37.2932019 C50.9762397,37.588654 51.603291,37.9918674 52.1248068,38.5028542 C52.6463227,39.013841 53.0585623,39.6265316 53.3615382,40.3409445 C53.6645141,41.0553573 53.8159997,41.8145609 53.8159997,42.6185781 C53.8159997,43.69383 53.5577291,44.6721976 53.0411801,45.5537104 C52.5246311,46.4352232 51.8143868,47.12783 50.910426,47.6315516 C50.0064653,48.1352732 49.0056665,48.3871303 47.9079999,48.3871303 Z M47.9079999,47.3700052 C48.5884539,47.3700052 49.2291637,47.2477092 49.8301486,47.0031136 C50.4311335,46.7585181 50.9464331,46.4267449 51.3760628,46.0077841 C51.8056926,45.5888234 52.1446728,45.0851093 52.3930136,44.4966269 C52.6413545,43.9081444 52.7655231,43.2821344 52.7655231,42.6185781 C52.7655231,41.7322218 52.5544365,40.925795 52.132257,40.1992735 C51.7100775,39.4727519 51.1277269,38.9024411 50.3851877,38.4883238 C49.6426485,38.0742065 48.8169275,37.867151 47.9079999,37.867151 C47.2275459,37.867151 46.586836,37.989447 45.9858511,38.2340426 C45.3848662,38.4786381 44.8695666,38.8104113 44.4399369,39.2293721 C44.0103072,39.6483328 43.671327,40.1520469 43.4229861,40.7405293 C43.1746452,41.3290118 43.0504766,41.9550218 43.0504766,42.6185781 C43.0504766,43.2821344 43.1758869,43.9069336 43.4267112,44.4929943 C43.6775355,45.079055 44.0177574,45.582769 44.4473871,46.0041515 C44.8770168,46.425534 45.3923164,46.7585181 45.9933013,47.0031136 C46.5942862,47.2477092 47.2325127,47.3700052 47.9079999,47.3700052 Z M50.7241713,41.5869227 L49.688595,41.5869227 C49.5991923,41.2430358 49.4042477,40.9681726 49.1037552,40.7623249 C48.8032627,40.5564771 48.4468989,40.4535547 48.0346531,40.4535547 C47.4585023,40.4535547 47.0003202,40.6472909 46.6600932,41.0347691 C46.3198662,41.4222472 46.1497553,41.9453349 46.1497553,42.6040477 C46.1497553,43.2724476 46.3198662,43.8028003 46.6600932,44.195122 C47.0003202,44.5874436 47.4585023,44.7836015 48.0346531,44.7836015 C48.471733,44.7836015 48.8343053,44.6879442 49.1223807,44.4966269 C49.4104561,44.3053095 49.5991923,44.0352898 49.688595,43.6865594 L50.7241713,43.6865594 C50.6298018,44.2968375 50.340489,44.7823888 49.8562243,45.1432278 C49.3719596,45.5040668 48.7672586,45.6844837 48.0421033,45.6844837 C47.1431093,45.6844837 46.4266566,45.4059879 45.8927237,44.8489881 C45.3587909,44.2919882 45.0918284,43.5436823 45.0918284,42.6040477 C45.0918284,41.6741002 45.3575492,40.9330593 45.8889987,40.380903 C46.4204481,39.8287466 47.1356591,39.5526725 48.0346531,39.5526725 C48.744908,39.5526725 49.3458839,39.7391436 49.8375988,40.1120913 C50.3293138,40.4850391 50.624835,40.9766446 50.7241713,41.5869227 Z M58.2937135,39.6325895 C58.2937135,38.702642 58.6177935,37.9373841 59.2659632,37.3367929 C59.9141329,36.7362018 60.7373705,36.4359107 61.7357008,36.4359107 C62.6992634,36.4359107 63.5076008,36.718039 64.1607373,37.2823041 C64.8138738,37.8465692 65.1404372,38.5452302 65.1404372,39.3783083 C65.1404372,39.9256211 64.9815014,40.463239 64.6636251,40.991178 C64.3457488,41.519117 63.7472563,42.2432059 62.8681296,43.1634665 L60.282914,45.8733783 L60.282914,45.9896212 L65.3192417,45.9896212 L65.3192417,47.1665802 L58.3607652,47.1665802 L58.3607652,46.265698 L62.0784095,42.3061754 C62.7687972,41.5748104 63.2282209,41.0178189 63.4566945,40.6351842 C63.6851681,40.2525495 63.7994032,39.850547 63.7994032,39.4291645 C63.7994032,38.906069 63.5970084,38.4665301 63.1922128,38.1105345 C62.7874172,37.754539 62.2895012,37.5765439 61.6984499,37.5765439 C61.0676641,37.5765439 60.5585729,37.7654366 60.1711611,38.1432278 C59.7837494,38.521019 59.5900464,39.017468 59.5900464,39.6325895 L59.5900464,39.6398547 L58.2937135,39.6398547 L58.2937135,39.6325895 Z M70.4189712,47.4135963 C69.2070677,47.4135963 68.2683533,46.9340992 67.6027998,45.9750908 C66.9372462,45.0160824 66.6044744,43.6647726 66.6044744,41.9211209 C66.6044744,40.1919997 66.9397296,38.8455333 67.6102499,37.8816814 C68.2807703,36.9178295 69.2170014,36.4359107 70.4189712,36.4359107 C71.6159742,36.4359107 72.5484802,36.9202512 73.2165172,37.8889465 C73.8845541,38.8576419 74.2185676,40.2089517 74.2185676,41.9429165 C74.2185676,43.6817247 73.8870375,45.028191 73.2239674,45.982356 C72.5608972,46.9365209 71.6259078,47.4135963 70.4189712,47.4135963 Z M68.5862247,45.1468604 C69.013371,45.8975993 69.6242804,46.2729632 70.4189712,46.2729632 C71.213662,46.2729632 71.8208463,45.8988102 72.2405424,45.150493 C72.6602385,44.4021758 72.8700834,43.3257292 72.8700834,41.9211209 C72.8700834,40.531043 72.6577551,39.4606507 72.2330922,38.7099118 C71.8084293,37.9591729 71.2037284,37.583809 70.4189712,37.583809 C69.634214,37.583809 69.0270297,37.9603837 68.5974,38.7135444 C68.1677703,39.466705 67.9529586,40.5358865 67.9529586,41.9211209 C67.9529586,43.3208857 68.1640452,44.3961215 68.5862247,45.1468604 Z M75.5783022,39.6325895 C75.5783022,38.702642 75.9023822,37.9373841 76.5505518,37.3367929 C77.1987215,36.7362018 78.0219592,36.4359107 79.0202895,36.4359107 C79.9838521,36.4359107 80.7921895,36.718039 81.445326,37.2823041 C82.0984625,37.8465692 82.4250259,38.5452302 82.4250259,39.3783083 C82.4250259,39.9256211 82.2660901,40.463239 81.9482138,40.991178 C81.6303374,41.519117 81.0318449,42.2432059 80.1527182,43.1634665 L77.5675026,45.8733783 L77.5675026,45.9896212 L82.6038304,45.9896212 L82.6038304,47.1665802 L75.6453539,47.1665802 L75.6453539,46.265698 L79.3629982,42.3061754 C80.0533858,41.5748104 80.5128095,41.0178189 80.7412831,40.6351842 C80.9697567,40.2525495 81.0839918,39.850547 81.0839918,39.4291645 C81.0839918,38.906069 80.8815971,38.4665301 80.4768014,38.1105345 C80.0720058,37.754539 79.5740898,37.5765439 78.9830385,37.5765439 C78.3522527,37.5765439 77.8431616,37.7654366 77.4557498,38.1432278 C77.068338,38.521019 76.8746351,39.017468 76.8746351,39.6325895 L76.8746351,39.6398547 L75.5783022,39.6398547 L75.5783022,39.6325895 Z M84.0231665,39.6325895 C84.0231665,38.702642 84.3472465,37.9373841 84.9954162,37.3367929 C85.6435858,36.7362018 86.4668235,36.4359107 87.4651538,36.4359107 C88.4287164,36.4359107 89.2370538,36.718039 89.8901903,37.2823041 C90.5433268,37.8465692 90.8698902,38.5452302 90.8698902,39.3783083 C90.8698902,39.9256211 90.7109544,40.463239 90.3930781,40.991178 C90.0752018,41.519117 89.4767092,42.2432059 88.5975825,43.1634665 L86.0123669,45.8733783 L86.0123669,45.9896212 L91.0486947,45.9896212 L91.0486947,47.1665802 L84.0902182,47.1665802 L84.0902182,46.265698 L87.8078625,42.3061754 C88.4982501,41.5748104 88.9576739,41.0178189 89.1861475,40.6351842 C89.4146211,40.2525495 89.5288562,39.850547 89.5288562,39.4291645 C89.5288562,38.906069 89.3264614,38.4665301 88.9216658,38.1105345 C88.5168701,37.754539 88.0189541,37.5765439 87.4279029,37.5765439 C86.797117,37.5765439 86.2880259,37.7654366 85.9006141,38.1432278 C85.5132023,38.521019 85.3194994,39.017468 85.3194994,39.6325895 L85.3194994,39.6398547 L84.0231665,39.6398547 L84.0231665,39.6325895 Z M100.436083,47.1665802 L96.2416266,47.1665802 L96.2416266,36.6829268 L100.354131,36.6829268 C101.337561,36.6829268 102.113614,36.9178319 102.682315,37.3876492 C103.251016,37.8574665 103.535362,38.4943741 103.535362,39.2983913 C103.535362,39.8408607 103.355317,40.3300445 102.995223,40.7659574 C102.635129,41.2018704 102.196814,41.4658359 101.680265,41.557862 L101.680265,41.6741048 C102.415354,41.7661309 102.998946,42.0409941 103.431059,42.4987026 C103.863172,42.9564112 104.079225,43.5315655 104.079225,44.2241827 C104.079225,45.1492868 103.757629,45.870954 103.114426,46.389206 C102.471223,46.907458 101.578451,47.1665802 100.436083,47.1665802 Z M97.5826606,37.8380903 L97.5826606,41.2018682 L99.7283151,41.2018682 C101.362398,41.2018682 102.179427,40.642455 102.179427,39.5236118 C102.179427,38.9908294 101.994416,38.5767183 101.624388,38.2812662 C101.25436,37.9858141 100.736577,37.8380903 100.071024,37.8380903 L97.5826606,37.8380903 Z M97.5826606,46.0114167 L100.234928,46.0114167 C101.044519,46.0114167 101.657912,45.8540061 102.075125,45.5391801 C102.492337,45.2243541 102.70094,44.7642307 102.70094,44.1587961 C102.70094,42.9382399 101.836727,42.3279709 100.108275,42.3279709 L97.5826606,42.3279709 L97.5826606,46.0114167 Z M111.831222,39.3347172 L111.831222,47.1665802 L110.609391,47.1665802 L110.609391,45.9387649 L110.490188,45.9387649 C110.286549,46.3795213 109.973644,46.7173488 109.551464,46.9522574 C109.129285,47.187166 108.612744,47.3046186 108.001825,47.3046186 C107.107798,47.3046186 106.427354,47.0551833 105.960473,46.5563051 C105.493592,46.057427 105.260155,45.3406032 105.260155,44.4058121 L105.260155,39.3347172 L106.541588,39.3347172 L106.541588,44.1006746 C106.541588,44.8126657 106.685624,45.3345425 106.973699,45.6663207 C107.261774,45.9980989 107.723681,46.1639855 108.359434,46.1639855 C109.059755,46.1639855 109.599889,45.9714602 109.97985,45.5864037 C110.359812,45.2013473 110.54979,44.6625186 110.54979,43.9699014 L110.54979,39.3347172 L111.831222,39.3347172 Z M113.503865,47.1665802 L113.503865,39.3347172 L114.785297,39.3347172 L114.785297,47.1665802 L113.503865,47.1665802 Z M114.777847,37.4893617 C114.604008,37.6588834 114.392922,37.743643 114.144581,37.743643 C113.89624,37.743643 113.685154,37.6576725 113.511315,37.4857291 C113.337476,37.3137857 113.250558,37.1091519 113.250558,36.8718215 C113.250558,36.6344911 113.337476,36.4298573 113.511315,36.2579139 C113.685154,36.0859704 113.89624,36 114.144581,36 C114.392922,36 114.604008,36.0859704 114.777847,36.2579139 C114.951686,36.4298573 115.038604,36.6344911 115.038604,36.8718215 C115.038604,37.1091519 114.951686,37.3149965 114.777847,37.4893617 Z M116.532442,47.1665802 L116.532442,36.2252206 L117.813874,36.2252206 L117.813874,47.1665802 L116.532442,47.1665802 Z M120.067631,37.3077322 L121.349064,37.3077322 L121.349064,39.3347172 L123.137109,39.3347172 L123.137109,40.380903 L121.349064,40.380903 L121.349064,44.8126622 C121.349064,45.2727925 121.443432,45.6069874 121.632171,45.8152569 C121.82091,46.0235264 122.123881,46.1276596 122.541094,46.1276596 C122.724866,46.1276596 122.923536,46.1179728 123.137109,46.0985989 L123.137109,47.1520498 C122.854001,47.2004846 122.60318,47.2247016 122.38464,47.2247016 C121.555182,47.2247016 120.961656,47.0624476 120.604045,46.7379346 C120.246434,46.4134217 120.067631,45.8782255 120.067631,45.13233 L120.067631,40.380903 L118.771299,40.380903 L118.771299,39.3347172 L120.067631,39.3347172 L120.067631,37.3077322 Z M131.83163,47.3046186 C131.275346,47.3046186 130.76998,47.1823226 130.315517,46.937727 C129.861053,46.6931315 129.507172,46.3528823 129.253865,45.9169694 L129.134662,45.9169694 L129.134662,47.1665802 L127.912831,47.1665802 L127.912831,36.2252206 L129.194263,36.2252206 L129.194263,40.5697976 L129.313466,40.5697976 C129.532006,40.1484151 129.868503,39.8142202 130.322967,39.5672029 C130.777431,39.3201856 131.280313,39.1966788 131.83163,39.1966788 C132.854794,39.1966788 133.671824,39.5647775 134.282742,40.300986 C134.893661,41.0371945 135.199115,42.0204055 135.199115,43.2506487 C135.199115,44.4760483 134.892419,45.4580485 134.279017,46.1966788 C133.665615,46.935309 132.849828,47.3046186 131.83163,47.3046186 Z M131.533622,40.3227815 C130.8035,40.3227815 130.226116,40.5843254 129.801454,41.1074209 C129.376791,41.6305164 129.164462,42.3449185 129.164462,43.2506487 C129.164462,44.1563789 129.376791,44.870781 129.801454,45.3938765 C130.226116,45.916972 130.8035,46.1785158 131.533622,46.1785158 C132.268711,46.1785158 132.84237,45.9193937 133.254616,45.4011417 C133.666862,44.8828896 133.872982,44.1660658 133.872982,43.2506487 C133.872982,42.3352315 133.666862,41.6184077 133.254616,41.1001557 C132.84237,40.5819037 132.268711,40.3227815 131.533622,40.3227815 Z M136.827057,50 C136.623417,50 136.432198,49.9854698 136.253392,49.9564089 L136.253392,48.8884276 C136.38253,48.912645 136.561332,48.9247535 136.789806,48.9247535 C137.162317,48.9247535 137.45908,48.8278854 137.680103,48.6341463 C137.901127,48.4404073 138.096072,48.1086341 138.264943,47.6388168 L138.413947,47.1738454 L135.441322,39.3347172 L136.827057,39.3347172 L139.032313,45.778931 L139.151516,45.778931 L141.349322,39.3347172 L142.712706,39.3347172 L139.576177,47.646082 C139.233466,48.5518122 138.868411,49.1705571 138.480999,49.5023352 C138.093587,49.8341134 137.542279,50 136.827057,50 Z M148.695358,37.8453555 L148.695358,41.8557343 L151.340175,41.8557343 C152.030563,41.8557343 152.563246,41.6825826 152.938241,41.336274 C153.313235,40.9899654 153.50073,40.4947273 153.50073,39.8505449 C153.50073,39.2208929 153.304544,38.7292874 152.912165,38.3757135 C152.519786,38.0221397 151.975928,37.8453555 151.280574,37.8453555 L148.695358,37.8453555 Z M148.695358,43.0181629 L148.695358,47.1665802 L147.354324,47.1665802 L147.354324,36.6829268 L151.459378,36.6829268 C152.497443,36.6829268 153.328131,36.9674768 153.951466,37.5365854 C154.574802,38.1056939 154.886465,38.8624758 154.886465,39.8069538 C154.886465,40.5383188 154.695246,41.1703831 154.312801,41.7031655 C153.930356,42.235948 153.401398,42.6064684 152.72591,42.8147379 L155.214273,47.1665802 L153.642284,47.1665802 L151.340175,43.0181629 L148.695358,43.0181629 Z M162.884318,39.3347172 L162.884318,47.1665802 L161.662487,47.1665802 L161.662487,45.9387649 L161.543284,45.9387649 C161.339645,46.3795213 161.02674,46.7173488 160.60456,46.9522574 C160.182381,47.187166 159.66584,47.3046186 159.054921,47.3046186 C158.160894,47.3046186 157.48045,47.0551833 157.013569,46.5563051 C156.546688,46.057427 156.313251,45.3406032 156.313251,44.4058121 L156.313251,39.3347172 L157.594684,39.3347172 L157.594684,44.1006746 C157.594684,44.8126657 157.738719,45.3345425 158.026795,45.6663207 C158.31487,45.9980989 158.776777,46.1639855 159.41253,46.1639855 C160.112851,46.1639855 160.652985,45.9714602 161.032946,45.5864037 C161.412908,45.2013473 161.602886,44.6625186 161.602886,43.9699014 L161.602886,39.3347172 L162.884318,39.3347172 Z M167.499785,47.3046186 C166.471654,47.3046186 165.652141,46.9365199 165.041223,46.2003114 C164.430304,45.4641029 164.12485,44.4808918 164.12485,43.2506487 C164.12485,42.025249 164.431546,41.0432488 165.044948,40.3046186 C165.65835,39.5659883 166.476621,39.1966788 167.499785,39.1966788 C168.061036,39.1966788 168.563918,39.3189747 169.008449,39.5635703 C169.452979,39.8081659 169.789476,40.1435716 170.017949,40.5697976 L170.129702,40.5697976 L170.129702,36.2252206 L171.411135,36.2252206 L171.411135,47.1665802 L170.189304,47.1665802 L170.189304,45.9169694 L170.0701,45.9169694 C169.816793,46.3528823 169.464154,46.6931315 169.012174,46.937727 C168.560193,47.1823226 168.056069,47.3046186 167.499785,47.3046186 Z M167.797793,40.3227815 C167.067671,40.3227815 166.494012,40.5831145 166.076799,41.1037883 C165.659587,41.624462 165.450983,42.340075 165.450983,43.2506487 C165.450983,44.1660658 165.658345,44.8828896 166.073074,45.4011417 C166.487803,45.9193937 167.062704,46.1785158 167.797793,46.1785158 C168.527915,46.1785158 169.104057,45.916972 169.526237,45.3938765 C169.948416,44.870781 170.159503,44.1563789 170.159503,43.2506487 C170.159503,42.3546054 169.947174,41.642625 169.522512,41.114686 C169.097849,40.5867471 168.522948,40.3227815 167.797793,40.3227815 Z M173.158279,47.1665802 L173.158279,39.3347172 L174.439711,39.3347172 L174.439711,47.1665802 L173.158279,47.1665802 Z M174.432261,37.4893617 C174.258423,37.6588834 174.047336,37.743643 173.798995,37.743643 C173.550654,37.743643 173.339568,37.6576725 173.165729,37.4857291 C172.991891,37.3137857 172.904972,37.1091519 172.904972,36.8718215 C172.904972,36.6344911 172.991891,36.4298573 173.165729,36.2579139 C173.339568,36.0859704 173.550654,36 173.798995,36 C174.047336,36 174.258423,36.0859704 174.432261,36.2579139 C174.6061,36.4298573 174.693018,36.6344911 174.693018,36.8718215 C174.693018,37.1091519 174.6061,37.3149965 174.432261,37.4893617 Z M178.958326,44.2096523 L178.839123,44.2096523 L176.931875,47.1665802 L175.479088,47.1665802 L178.228208,43.2506487 L175.449287,39.3347172 L176.976576,39.3347172 L178.883824,42.248054 L179.003027,42.248054 L180.887925,39.3347172 L182.340712,39.3347172 L179.613943,43.1997924 L182.377963,47.1665802 L180.858124,47.1665802 L178.958326,44.2096523 Z M187.894903,36.4359107 C189.419716,36.4359107 190.620426,36.9287271 191.497069,37.9143747 C192.373713,38.9000222 192.812028,40.2355909 192.812028,41.9211209 C192.812028,43.6066509 192.373713,44.9434305 191.497069,45.9314997 C190.620426,46.919569 189.419716,47.4135963 187.894903,47.4135963 C186.360156,47.4135963 185.153238,46.919569 184.274111,45.9314997 C183.394984,44.9434305 182.955428,43.6066509 182.955428,41.9211209 C182.955428,40.2355909 183.398709,38.9000222 184.285286,37.9143747 C185.171863,36.9287271 186.375057,36.4359107 187.894903,36.4359107 Z M187.894903,37.6419305 C186.802203,37.6419305 185.935506,38.0269811 185.294787,38.7970939 C184.654068,39.5672068 184.333713,40.6085387 184.333713,41.9211209 C184.333713,43.2337032 184.650342,44.2762459 185.283612,45.0487805 C185.916881,45.8213151 186.787303,46.2075765 187.894903,46.2075765 C188.99257,46.2075765 189.856783,45.8201042 190.487569,45.0451479 C191.118355,44.2701916 191.433743,43.2288597 191.433743,41.9211209 C191.433743,40.6036952 191.118355,39.5611524 190.487569,38.7934613 C189.856783,38.0257702 188.99257,37.6419305 187.894903,37.6419305 Z M198.112912,39.1966788 C199.136077,39.1966788 199.954348,39.5647775 200.56775,40.300986 C201.181151,41.0371945 201.487848,42.0204055 201.487848,43.2506487 C201.487848,44.4760483 201.17991,45.4580485 200.564024,46.1966788 C199.948139,46.935309 199.13111,47.3046186 198.112912,47.3046186 C197.541728,47.3046186 197.03512,47.1895877 196.593074,46.9595226 C196.151027,46.7294574 195.820739,46.4061602 195.602199,45.9896212 L195.482996,45.9896212 L195.482996,49.7820446 L194.201563,49.7820446 L194.201563,39.3347172 L195.423394,39.3347172 L195.423394,40.6424494 L195.542597,40.6424494 C195.800872,40.1920061 196.157235,39.8384375 196.611699,39.5817333 C197.066163,39.325029 197.566562,39.1966788 198.112912,39.1966788 Z M197.807454,46.1785158 C198.542543,46.1785158 199.118686,45.9193937 199.535898,45.4011417 C199.953111,44.8828896 200.161714,44.1660658 200.161714,43.2506487 C200.161714,42.3352315 199.954353,41.6184077 199.539623,41.1001557 C199.124894,40.5819037 198.549994,40.3227815 197.814905,40.3227815 C197.089749,40.3227815 196.513607,40.5855362 196.086461,41.1110535 C195.659315,41.6365707 195.445745,42.349762 195.445745,43.2506487 C195.445745,44.1466919 195.658073,44.8586723 196.082736,45.3866113 C196.507399,45.9145503 197.082299,46.1785158 197.807454,46.1785158 Z M202.542125,41.477945 C202.542125,40.8289191 202.827712,40.2864578 203.398896,39.8505449 C203.97008,39.414632 204.682808,39.1966788 205.537101,39.1966788 C206.376493,39.1966788 207.069353,39.3855715 207.615703,39.7633627 C208.162053,40.1411539 208.477441,40.6521331 208.561877,41.2963155 L207.295345,41.2963155 C207.205943,40.976646 207.008515,40.7235782 206.703055,40.5371043 C206.397596,40.3506304 206.006465,40.2573949 205.52965,40.2573949 C205.047869,40.2573949 204.644321,40.3663715 204.318995,40.584328 C203.993668,40.8022844 203.831007,41.0832019 203.831007,41.4270887 C203.831007,41.69348 203.944001,41.9150657 204.169991,42.0918526 C204.395981,42.2686395 204.747378,42.4127308 205.224193,42.5241308 L206.460924,42.8147379 C207.225814,42.9939466 207.790781,43.2530687 208.155842,43.5921121 C208.520903,43.9311555 208.703431,44.3791704 208.703431,44.9361702 C208.703431,45.6287874 208.397976,46.1966788 207.787058,46.6398547 C207.176139,47.0830328 206.408777,47.3046186 205.484949,47.3046186 C204.590922,47.3046186 203.858328,47.1108824 203.287144,46.7234043 C202.71596,46.3359261 202.395605,45.8176818 202.326069,45.1686559 L203.644753,45.1686559 C203.754023,45.5076993 203.970076,45.7728757 204.292919,45.964193 C204.615762,46.1555104 205.028002,46.2511676 205.52965,46.2511676 C206.071034,46.2511676 206.515557,46.1373476 206.863234,45.9097042 C207.210912,45.6820608 207.384748,45.3890348 207.384748,45.0306175 C207.384748,44.4978351 206.960091,44.1297364 206.110765,43.9263103 L204.73248,43.5993773 C203.972557,43.4201686 203.417524,43.1622573 203.067363,42.8256357 C202.717202,42.4890141 202.542125,42.0397883 202.542125,41.477945 Z M223.581609,39.3347172 L221.331652,47.1665802 L220.027868,47.1665802 L218.232373,41.1074209 L218.11317,41.1074209 L216.325125,47.1665802 L215.028792,47.1665802 L212.778835,39.3347172 L214.075167,39.3347172 L215.654608,45.5973015 L215.773811,45.5973015 L217.569306,39.3347172 L218.798587,39.3347172 L220.594083,45.5973015 L220.713286,45.5973015 L222.292726,39.3347172 L223.581609,39.3347172 Z M224.553933,47.1665802 L224.553933,39.3347172 L225.835366,39.3347172 L225.835366,47.1665802 L224.553933,47.1665802 Z M225.827916,37.4893617 C225.654077,37.6588834 225.44299,37.743643 225.19465,37.743643 C224.946309,37.743643 224.735222,37.6576725 224.561384,37.4857291 C224.387545,37.3137857 224.300627,37.1091519 224.300627,36.8718215 C224.300627,36.6344911 224.387545,36.4298573 224.561384,36.2579139 C224.735222,36.0859704 224.946309,36 225.19465,36 C225.44299,36 225.654077,36.0859704 225.827916,36.2579139 C226.001754,36.4298573 226.088672,36.6344911 226.088672,36.8718215 C226.088672,37.1091519 226.001754,37.3149965 225.827916,37.4893617 Z M228.044422,37.3077322 L229.325854,37.3077322 L229.325854,39.3347172 L231.1139,39.3347172 L231.1139,40.380903 L229.325854,40.380903 L229.325854,44.8126622 C229.325854,45.2727925 229.420223,45.6069874 229.608962,45.8152569 C229.797701,46.0235264 230.100672,46.1276596 230.517885,46.1276596 C230.701657,46.1276596 230.900327,46.1179728 231.1139,46.0985989 L231.1139,47.1520498 C230.830791,47.2004846 230.579971,47.2247016 230.361431,47.2247016 C229.531972,47.2247016 228.938446,47.0624476 228.580836,46.7379346 C228.223225,46.4134217 228.044422,45.8782255 228.044422,45.13233 L228.044422,40.380903 L226.748089,40.380903 L226.748089,39.3347172 L228.044422,39.3347172 L228.044422,37.3077322 Z M232.354431,47.1665802 L232.354431,36.2252206 L233.635864,36.2252206 L233.635864,40.5697976 L233.755067,40.5697976 C233.958706,40.1290412 234.27037,39.7900029 234.690066,39.5526725 C235.109762,39.3153422 235.622578,39.1966788 236.22853,39.1966788 C237.082822,39.1966788 237.758299,39.4521683 238.254981,39.9631552 C238.751663,40.474142 239,41.1849116 239,42.0954852 L239,47.1665802 L237.718567,47.1665802 L237.718567,42.4006227 C237.718567,41.0153883 237.100208,40.3227815 235.86347,40.3227815 C235.158182,40.3227815 234.610599,40.522572 234.220704,40.9221588 C233.830809,41.3217456 233.635864,41.8581527 233.635864,42.531396 L233.635864,47.1665802 L232.354431,47.1665802 Z M6.16394734,13.1879883 C6.76453628,13.1879883 7.24646506,13.4113747 7.60974813,13.8581543 C7.97303119,14.3049339 8.15467,14.8959924 8.15467,15.6313477 C8.15467,16.3667029 7.97229878,16.9584939 7.60755086,17.4067383 C7.24280294,17.8549827 6.76160658,18.0791016 6.16394734,18.0791016 C5.79773458,18.0791016 5.47327493,17.9919442 5.19055867,17.817627 C4.90784241,17.6433097 4.7005691,17.4038101 4.5687325,17.0991211 L4.51599813,17.0991211 L4.51599813,19.5688477 L3.94031453,19.5688477 L3.94031453,13.2670898 L4.48963094,13.2670898 L4.48963094,14.2338867 L4.54236531,14.2338867 C4.68885042,13.9086898 4.90564513,13.6530771 5.19275594,13.467041 C5.47986675,13.2810049 5.80359398,13.1879883 6.16394734,13.1879883 Z M6.03650594,17.5561523 C6.50525828,17.5561523 6.87659246,17.3833025 7.15051961,17.0375977 C7.42444676,16.6918928 7.56140828,16.2246123 7.56140828,15.6357422 C7.56140828,15.0439424 7.42444676,14.5744646 7.15051961,14.2272949 C6.87659246,13.8801252 6.50672311,13.706543 6.04090047,13.706543 C5.57800753,13.706543 5.20520852,13.8823225 4.92249227,14.2338867 C4.63977601,14.585451 4.49842,15.0512666 4.49842,15.6313477 C4.49842,16.2114287 4.63904359,16.6772443 4.920295,17.0288086 C5.20154641,17.3803729 5.573613,17.5561523 6.03650594,17.5561523 Z M10.5140615,13.1879883 C11.1761741,13.1879883 11.700583,13.4062478 12.0873036,13.8427734 C12.4740243,14.2792991 12.6673818,14.8754845 12.6673818,15.6313477 C12.6673818,16.3872108 12.4740243,16.9848611 12.0873036,17.4243164 C11.700583,17.860842 11.1761741,18.0791016 10.5140615,18.0791016 C9.85194877,18.0791016 9.32827236,17.8601096 8.94301653,17.4221191 C8.5577607,16.9841287 8.36513567,16.3872108 8.36513567,15.6313477 C8.36513567,14.8754845 8.5577607,14.2792991 8.94301653,13.8427734 C9.32827236,13.4062478 9.85194877,13.1879883 10.5140615,13.1879883 Z M20.7523756,13.1879883 C21.3822616,13.1879883 21.8788386,13.3974588 22.2421217,13.8164062 C22.6054048,14.2353537 22.7870436,14.806637 22.7870436,15.5302734 L22.7870436,15.7851562 L19.2318678,15.7851562 L19.2318678,15.8115234 C19.2465163,16.3476589 19.3922668,16.7739242 19.6691236,17.090332 C19.9459805,17.4067399 20.3129202,17.5649414 20.7699537,17.5649414 C21.1039398,17.5649414 21.3881166,17.5012213 21.6224928,17.3737793 C21.856869,17.2463373 22.0253243,17.0654309 22.1278639,16.8310547 L22.7123365,16.8310547 C22.5951485,17.2177754 22.3637055,17.5224598 22.0180006,17.7451172 C21.6722957,17.9677746 21.2518898,18.0791016 20.7567701,18.0791016 C20.1063763,18.0791016 19.5907564,17.8586448 19.2098951,17.4177246 C18.8290339,16.9768044 18.6386061,16.3828162 18.6386061,15.6357422 C18.6386061,14.8915978 18.8297663,14.2976096 19.2120924,13.8537598 C19.5944185,13.4099099 20.1078411,13.1879883 20.7523756,13.1879883 Z M13.0887849,13.2670898 L14.1390779,17.2836914 L14.1918123,17.2836914 L15.3607576,13.2670898 L15.9364412,13.2670898 L17.1053865,17.2836914 L17.1581209,17.2836914 L18.2172029,13.2670898 L18.797281,13.2670898 L17.4481599,18 L16.8373201,18 L15.6727693,14.0712891 L15.6156404,14.0712891 L14.4510896,18 L13.8446443,18 L12.5043123,13.2670898 L13.0887849,13.2670898 Z M10.5140615,13.706543 C10.0277309,13.706543 9.64687533,13.8771956 9.37148333,14.2185059 C9.09609132,14.5598162 8.95839739,15.0307587 8.95839739,15.6313477 C8.95839739,16.2319366 9.09609132,16.7036116 9.37148333,17.0463867 C9.64687533,17.3862322 10.0277309,17.5561523 10.5140615,17.5561523 C11.000392,17.5561523 11.3812476,17.3854998 11.6566396,17.0441895 C11.9320316,16.7028792 12.0697255,16.2319366 12.0697255,15.6313477 C12.0697255,15.0307587 11.9320316,14.5598162 11.6566396,14.2185059 C11.3812476,13.8771956 11.000392,13.706543 10.5140615,13.706543 Z M20.7479811,13.6977539 C20.3173149,13.6977539 19.964291,13.8449692 19.688899,14.1394043 C19.413507,14.4338394 19.2626296,14.8242163 19.2362623,15.3105469 L22.1849928,15.3105469 C22.1791334,14.8212866 22.0451015,14.4301772 21.7828932,14.137207 C21.5206848,13.8442368 21.1757176,13.6977539 20.7479811,13.6977539 Z M23.2392085,18 L23.2392085,13.2670898 L23.7885249,13.2670898 L23.7885249,14.0449219 L23.8456538,14.0449219 C23.9247557,13.7871081 24.0858869,13.5798348 24.3290522,13.4230957 C24.5722175,13.2663566 24.850535,13.1879883 25.1640131,13.1879883 C25.3515141,13.1879883 25.4994618,13.2011717 25.6078608,13.2275391 L25.6078608,13.8032227 C25.4760242,13.7651365 25.3046392,13.7460937 25.0937006,13.7460937 C24.7274879,13.7460937 24.4228034,13.8698718 24.1796381,14.1174316 C23.9364729,14.3649915 23.8148921,14.6748028 23.8148921,15.046875 L23.8148921,18 L23.2392085,18 Z M28.9076819,16.8310547 L29.4921546,16.8310547 C29.3749665,17.2177754 29.1435235,17.5224598 28.7978187,17.7451172 C28.4521138,17.9677746 28.0317079,18.0791016 27.5365882,18.0791016 C26.8861943,18.0791016 26.3705745,17.8586448 25.9897132,17.4177246 C25.6088519,16.9768044 25.4184241,16.3828162 25.4184241,15.6357422 C25.4184241,14.8915978 25.6095843,14.2976096 25.9919105,13.8537598 C26.3742366,13.4099099 26.8876592,13.1879883 27.5321937,13.1879883 C28.1620796,13.1879883 28.6586567,13.3974588 29.0219398,13.8164062 C29.3852228,14.2353537 29.5668616,14.806637 29.5668616,15.5302734 L29.5668616,15.7851562 L26.0116858,15.7851562 L26.0116858,15.8115234 C26.0263344,16.3476589 26.1720849,16.7739242 26.4489417,17.090332 C26.7257986,17.4067399 27.0927383,17.5649414 27.5497718,17.5649414 C27.8837578,17.5649414 28.1679347,17.5012213 28.4023108,17.3737793 C28.636687,17.2463373 28.8051424,17.0654309 28.9076819,16.8310547 Z M27.5277991,13.6977539 C27.0971329,13.6977539 26.7441091,13.8449692 26.4687171,14.1394043 C26.1933251,14.4338394 26.0424477,14.8242163 26.0160804,15.3105469 L28.9648108,15.3105469 C28.9589514,14.8212866 28.8249196,14.4301772 28.5627112,14.137207 C28.3005029,13.8442368 27.9555356,13.6977539 27.5277991,13.6977539 Z M31.7856281,18.0791016 C31.1821094,18.0791016 30.697251,17.8557151 30.3310382,17.4089355 C29.9648255,16.962156 29.7817218,16.3710974 29.7817218,15.6357422 C29.7817218,14.9033167 29.9655579,14.3122581 30.3332355,13.8625488 C30.7009131,13.4128395 31.1850391,13.1879883 31.7856281,13.1879883 C32.1459814,13.1879883 32.4682438,13.2773429 32.752425,13.4560547 C33.0366061,13.6347665 33.2460766,13.879393 33.3808429,14.1899414 L33.4335773,14.1899414 L33.4335773,11.3818359 L34.0092609,11.3818359 L34.0092609,18 L33.45555,18 L33.45555,17.0551758 L33.4028156,17.0551758 C33.2621899,17.3715836 33.0475924,17.621337 32.7590168,17.8044434 C32.4704411,17.9875497 32.1459814,18.0791016 31.7856281,18.0791016 Z M31.908675,13.706543 C31.4399226,13.706543 31.0671236,13.8808576 30.7902668,14.2294922 C30.5134099,14.5781267 30.3749835,15.0454072 30.3749835,15.6313477 C30.3749835,16.2202178 30.5134099,16.6882307 30.7902668,17.0354004 C31.0671236,17.3825701 31.4399226,17.5561523 31.908675,17.5561523 C32.3744976,17.5561523 32.7465642,17.3818377 33.0248859,17.0332031 C33.3032076,16.6845686 33.4423664,16.2172881 33.4423664,15.6313477 C33.4423664,15.0512666 33.3024752,14.585451 33.0226886,14.2338867 C32.7429021,13.8823225 32.3715679,13.706543 31.908675,13.706543 Z M28.5209632,25.0791016 C28.1576801,25.0791016 27.8324881,24.9882822 27.5453773,24.8066406 C27.2582664,24.6249991 27.0444014,24.3745133 26.9037757,24.0551758 L26.8466468,24.0551758 L26.8466468,25 L26.2973304,25 L26.2973304,18.3818359 L26.873014,18.3818359 L26.873014,21.1855469 L26.9257483,21.1855469 C27.0575849,20.8779281 27.2670555,20.6347665 27.5541663,20.4560547 C27.8412771,20.2773429 28.1635395,20.1879883 28.5209632,20.1879883 C29.1215521,20.1879883 29.6034809,20.4106423 29.966764,20.855957 C30.330047,21.3012718 30.5116858,21.8930627 30.5116858,22.6313477 C30.5116858,23.3667029 30.3293146,23.9584939 29.9645667,24.4067383 C29.5998188,24.8549827 29.1186224,25.0791016 28.5209632,25.0791016 Z M29.5097327,21.2250977 C29.2372704,20.8793928 28.8681335,20.706543 28.4023108,20.706543 C27.9364882,20.706543 27.5629568,20.88159 27.2817054,21.2316895 C27.000454,21.5817889 26.8598304,22.0483369 26.8598304,22.6313477 C26.8598304,23.2143584 27.000454,23.6809065 27.2817054,24.0310059 C27.5629568,24.3811053 27.9364882,24.5561523 28.4023108,24.5561523 C28.8681335,24.5561523 29.2372704,24.3825701 29.5097327,24.0354004 C29.782195,23.6882307 29.9184241,23.218753 29.9184241,22.6269531 C29.9184241,22.038083 29.782195,21.5708025 29.5097327,21.2250977 Z M31.1308429,26.6743164 C31.051741,26.6743164 30.9623864,26.6684571 30.8627765,26.6567383 L30.8627765,26.1557617 C30.9213706,26.1674805 31.0077955,26.1733398 31.1220539,26.1733398 C31.3388518,26.1733398 31.5146313,26.1103522 31.6493976,25.984375 C31.7841639,25.8583978 31.9101392,25.6386734 32.0273273,25.3251953 L32.124007,25.0307617 L30.3486164,20.2670898 L30.9726398,20.2670898 L32.405257,24.371582 L32.4579914,24.371582 L33.886214,20.2670898 L34.5014484,20.2670898 L32.6601398,25.2285156 C32.4492012,25.7968778 32.2382659,26.1799307 32.0273273,26.3776855 C31.8163887,26.5754404 31.5175636,26.6743164 31.1308429,26.6743164 Z M262.520943,37.4777478 C262.414077,37.5632563 260.527331,38.659666 260.527331,41.0976098 C260.527331,43.9174917 262.928142,44.9150915 263,44.939794 C262.988945,45.0006001 262.618597,46.3060306 261.734185,47.6361636 C260.945584,48.8066807 260.121975,49.9752975 258.869058,49.9752975 C257.616141,49.9752975 257.293699,49.2247225 255.847316,49.2247225 C254.437784,49.2247225 253.936617,50 252.790566,50 C251.644515,50 250.844859,48.9168917 249.925439,47.5867587 C248.860459,46.0248025 248,43.5982598 248,41.2952295 C248,37.6012601 250.328952,35.6421642 252.621054,35.6421642 C253.838963,35.6421642 254.854195,36.4668467 255.618843,36.4668467 C256.34664,36.4668467 257.481636,35.5927593 258.867215,35.5927593 C259.392335,35.5927593 261.279081,35.6421642 262.520943,37.4777478 Z" id="path-2"></path>
        <filter x="-1.5%" y="-4.5%" width="103.1%" height="118.2%" filterUnits="objectBoundingBox" id="filter-3">
            <feGaussianBlur stdDeviation="0" in="SourceGraphic"></feGaussianBlur>
        </filter>
        <filter x="-2.7%" y="-11.4%" width="105.4%" height="131.8%" filterUnits="objectBoundingBox" id="filter-4">
            <feOffset dx="0" dy="2" in="SourceAlpha" result="shadowOffsetOuter1"></feOffset>
            <feGaussianBlur stdDeviation="2" in="shadowOffsetOuter1" result="shadowBlurOuter1"></feGaussianBlur>
            <feColorMatrix values="0 0 0 0 0   0 0 0 0 0   0 0 0 0 0  0 0 0 0.5 0" type="matrix" in="shadowBlurOuter1"></feColorMatrix>
        </filter>
    </defs>
    <g id="Artboard" stroke="none" stroke-width="1" fill="none" fill-rule="evenodd">
        <g id="powered-by" filter="url(#filter-3)">
            <use fill="black" fill-opacity="1" filter="url(#filter-4)" xlink:href="#path-2"></use>
            <use fill="url(#linearGradient-1)" fill-rule="evenodd" xlink:href="#path-2"></use>
        </g>
    </g>
</svg>