<svg
		width={1200}
		height={630}
		xmlns="http://www.w3.org/2000/svg"
		xmlnsXlink="http://www.w3.org/1999/xlink"

	>
		<defs>
			<filter
				x="-1.6%"
				y="-2.6%"
				width="103.1%"
				height="105.8%"
				filterUnits="objectBoundingBox"
				id="b"
			>
				<feMorphology
					radius={10}
					operator="dilate"
					in="SourceAlpha"
					result="shadowSpreadOuter1"
				/>
				<feOffset dy={2} in="shadowSpreadOuter1" result="shadowOffsetOuter1" />
				<feGaussianBlur
					stdDeviation={2}
					in="shadowOffsetOuter1"
					result="shadowBlurOuter1"
				/>
				<feComposite
					in="shadowBlurOuter1"
					in2="SourceAlpha"
					operator="out"
					result="shadowBlurOuter1"
				/>
				<feColorMatrix
					values="0 0 0 0 0 0 0 0 0 0 0 0 0 0 0 0 0 0 0.5 0"
					in="shadowBlurOuter1"
				/>
			</filter>
			<filter
				x="-5.2%"
				y="-58.3%"
				width="110.5%"
				height="216.5%"
				filterUnits="objectBoundingBox"
				id="d"
			>
				<feOffset dy={2} in="SourceAlpha" result="shadowOffsetOuter1" />
				<feGaussianBlur
					stdDeviation={7}
					in="shadowOffsetOuter1"
					result="shadowBlurOuter1"
				/>
				<feColorMatrix
					values="0 0 0 0 0 0 0 0 0 0 0 0 0 0 0 0 0 0 0.5 0"
					in="shadowBlurOuter1"
					result="shadowMatrixOuter1"
				/>
				<feMerge>
					<feMergeNode in="shadowMatrixOuter1" />
					<feMergeNode in="SourceGraphic" />
				</feMerge>
			</filter>
			<rect id="a" x={5.048} y={9.44} width={1086.968} height={588} rx={28} />
		</defs>
		<g fill="none" fillRule="evenodd">
			<g transform="translate(50.187 10.559)">
				<mask id="c" fill="#fff">
					<use xlinkHref="#a" transform="rotate(1 548.532 303.44)" />
				</mask>
				<g transform="rotate(1 548.532 303.44)">
					<use fill="#000" filter="url(#b)" xlinkHref="#a" />
					<rect
						stroke="#000"
						strokeWidth={10}
						fill="#D8D8D8"
						x={0.048}
						y={4.44}
						width={1096.968}
						height={598}
						rx={28}
					/>
				</g>
				<g mask="url(#c)" fillRule="nonzero">
					<path
						d="M18.22-8.55C11.812-5.947 2.6 2.67-.804 9.482c-1.603 2.805-3.205 9.618-3.805 15.028-2.003 17.032-9.813 536.406-8.411 544.42 2.002 10.22 15.62 24.447 26.233 27.052 11.415 3.005 1044.14 20.638 1053.552 18.234 9.012-2.605 20.626-12.824 24.431-21.841 2.403-5.811 3.805-50.896 7.81-281.328l4.807-274.314-4.807-9.217c-3.204-6.212-7.81-11.02-14.218-15.028-9.412-5.811-10.413-6.012-40.051-6.613C942.405 3.472 83.504-10.754 56.269-10.557c-18.224 0-35.245 1.004-38.05 2.006ZM56.67 2.07c1 1.602 2.603 1.402 5.606-.402 5.207-3.206 5.007-3.406 5.207 5.41.2 6.212-.6 8.016-3.404 8.817-2.203.601-3.805.2-3.805-.801 0-1.002-2.203-1.804-5.007-1.804-3.604 0-5.006 1.002-5.006 3.607 0 2.204-2.003 4.809-4.406 6.011l-4.606 2.204h4.406c2.403.2 4.606 1.203 5.007 2.605 1 2.805 25.432 4.208 28.636 1.603 3.004-2.404 31.64 1.202 32.642 4.008.4 1.202 1.802 2.003 3.405 2.003 1.401 0 3.604 1.203 4.806 2.806 2.002 2.404 0 3.005-13.217 4.208-8.611.801-17.022 1.803-18.824 2.204-1.803.6-4.807-.401-6.409-2.004-1.602-1.603-3.604-2.204-4.606-1.202-3.404 3.406-14.218 4.208-16.821 1.202-1.602-2.004-5.407-2.805-12.216-2.204-6.208.4-9.412-.2-8.61-1.403.8-1.202-.201-1.202-2.604.2-2.203 1.203-4.606 1.604-5.407.802-.6-.601-6.408-1.002-13.017-.801-6.608.2-12.416-.601-13.217-1.603-2.203-3.607 8.01-6.813 22.63-7.214 8.01-.2 15.019-.801 15.62-1.403 1.601-1.603-13.218-4.207-22.63-4.007-4.806.2-8.61-.802-8.61-2.004 0-1.002-1.403-1.603-3.005-.801-7.61 2.805.801-13.425 9.613-19.036C23.827-.135 28.233-.736 40.248-.536c8.411.2 15.62 1.403 16.421 2.605Zm679.07 19.636c-.4 5.81-1 12.022-1.201 13.625 0 1.603.6 5.01 1.402 7.414 1.201 3.607.8 4.409-1.602 3.407-1.602-.601-3.205-2.605-3.605-4.408-.6-2.205-1.802-.602-3.404 4.007-1.402 4.208-3.405 7.614-4.406 7.614-2.403 0-2.203-2.805.4-5.41 1.402-1.402 1.202-3.005-1.201-5.21-2.403-2.404-2.804-5.81-1.802-14.827 1.602-16.23 1.802-16.632 9.612-16.632h6.809l-1.002 10.42Zm62.48-8.416c.802 1.202 2.203 1.403 3.405.802 1.201-.802 1.201.2-.2 2.805-2.604 5.01-2.804 8.616-.2 4.408 1.601-2.605 2.202-2.605 4.405-.2 2.003 2.004 2.003 2.404.2 1.402-2.403-1.402-3.404 1.203-3.204 8.216.2 1.402-.8 2.605-2.203 2.605-1.201.2 0 1.402 2.804 3.206l5.006 3.005-6.408-1.202c-6.008-1.202-6.608-.801-6.608 3.807 0 2.605-.801 5.41-2.003 6.212-1.001.601-1.402 2.204-1.001 3.607.6 1.402.2 3.606-.801 5.21-2.403 3.807-13.618 1.001-15.22-4.008-.8-2.004-2.403-3.807-3.604-3.807-1.402 0-3.605-1.804-5.007-4.008-2.603-4.208-8.811-5.61-7.81-1.803.2 1.202-.8 2.805-2.002 3.206-4.206 1.603-3.004-12.423 2.403-29.455 1.402-4.81 1.402-4.81-2.403-1.603-5.007 4.608-6.609 4.608-6.609-.401 0-3.807 1.402-4.008 22.83-4.008 13.417 0 23.43.802 24.23 2.004Zm39.651 3.407c2.804 3.206 2.804 3.807-.2 6.612-2.803 2.605-3.004 2.404-1.802-.601.6-1.804.4-3.407-.4-3.407-1.002 0-2.204-1.402-3.005-3.005-1.401-4.008 1.402-3.807 5.407.4ZM64.28 21.105c0 3.607-3.605 4.208-6.008 1.202-2.002-2.605-1.802-3.006 1.803-3.006 2.202 0 4.205.802 4.205 1.804Zm981.259 6.211c15.42 2.605 42.855 11.222 45.658 14.628 2.604 3.006-4.205 403.757-6.808 406.161-3.004 2.806-38.65 8.015-54.47 8.015-13.017 0-15.62.602-20.827 5.01-7.61 6.412-10.614 5.41-10.413-2.805.4-4.81-.4-6.212-3.405-6.212-2.002 0-3.805 1.002-3.805 2.204 0 1.603-.8 1.603-2.403.2-1.401-1.002-11.414-6.612-22.428-12.022-35.045-18.234-50.665-35.266-69.29-74.94-2.402-5.01-2.002-5.812 4.006-11.021 3.604-3.006 7.61-6.212 9.011-7.013 4.206-2.405 72.093-10.22 77.5-9.017 2.603.801 7.81 4.007 11.214 7.414 3.605 3.206 7.81 6.01 9.613 6.01 1.802 0 4.605 1.604 6.007 3.407 2.003 3.006 5.607 3.607 20.226 3.607 21.628 0 34.044-5.01 42.054-17.232 10.213-15.63 7.61-39.675-5.807-50.896-11.215-9.417-18.824-11.622-45.058-12.022-36.046-.802-36.247-1.002-41.654-45.486-3.003-24.846-3.003-27.852-.2-33.462 4.206-7.815 7.61-9.618 24.231-12.223 17.222-2.806 30.84-8.616 38.25-16.23 5.406-5.611 5.807-7.415 5.807-20.84 0-13.625-.4-15.228-6.008-21.04-8.811-9.216-15.42-12.022-28.637-12.022-13.617 0-22.829 5.01-29.437 15.83-11.015 18.234-11.015 18.234-45.058 22.242-42.455 5.21-44.658 5.21-52.267-1.603-5.607-5.01-6.409-6.813-6.208-15.63.6-18.635 12.015-44.082 29.638-65.923 28.436-34.866 83.307-54.502 130.968-47.089Zm-220.483 4.61c-.4.2-2.203 1.602-4.005 3.005-2.604 1.803-3.204 1.803-3.204-.601 0-1.603 1.802-3.006 4.005-3.006s3.604.2 3.204.601ZM36.243 57.171c0 2.205-11.815 5.21-13.417 3.407-.801-.601.6-1.202 3.004-1.202 2.203 0 4.806-1.002 5.407-2.004 1.602-2.605 5.006-2.605 5.006-.2Zm-6.008 8.216c0 1.002-1.401 2.004-3.004 2.004-1.602 0-3.003-1.002-3.003-2.004 0-1.202 1.401-2.004 3.003-2.004 1.603 0 3.004.802 3.004 2.004Zm41.053 4.007c1.602 0 3.404-1.002 4.005-2.003.6-1.203 2.203-2.004 3.204-2.004 1.202 0 1.402.801.801 2.004-.8 1.202 1.602 2.003 5.808 2.003 7.009 0 11.214 2.806 6.608 4.609-1.201.4-7.41.2-13.417-.601-8.41-1.202-11.815-.802-14.218 1.402-2.604 2.205-3.605 2.205-4.206.401-.4-1.402-3.604-2.805-6.808-3.005-8.611-.401-9.212-.602-7.81-2.806.6-1.002 2.603-1.202 4.405-.6 2.003.8 2.804.4 2.003-.802-.801-1.403 1.402-1.603 6.608-.601 4.206.801 7.81.801 7.61.2-.4-3.406 1.001-4.809 1.802-1.803.4 2.003 2.203 3.606 3.605 3.606Zm671.461-3.206c1.002.601 9.012 3.407 17.623 6.012 31.24 10.018 57.474 32.66 71.892 62.316 23.63 48.09 18.824 100.589-14.018 151.484-4.606 7.214-24.832 33.664-45.058 58.71-20.025 25.047-35.846 46.087-35.245 46.688.601.601 27.035-2.004 58.675-5.81 62.68-7.615 67.487-7.415 72.894 2.604 2.203 4.208 9.813 58.109 9.813 70.332 0 3.206-2.404 8.015-5.407 11.622-6.409 6.812 5.607 5.21-179.23 27.05-75.898 9.218-79.703 9.418-84.709 6.212-7.21-4.809-8.41-9.217-13.017-45.485-4.205-34.866-3.805-37.27 5.808-49.693 8.41-11.021 9.412-13.225 5.407-11.622-2.203.801-3.004.6-2.203-.802.8-1.202 2.603-1.603 4.205-1.002 1.602.602 5.007-2.003 8.21-6.812 3.205-4.208 25.033-32.662 48.663-63.32 63.281-81.752 63.882-82.754 70.69-95.779 5.608-10.82 6.41-14.226 6.41-28.253 0-13.826-.802-17.432-5.408-25.247-11.414-19.436-39.85-23.444-57.874-8.416-6.809 5.811-15.82 22.843-15.82 30.057 0 2.605-2.604 7.414-5.608 10.82-5.406 6.011-6.608 6.412-35.445 10.019-42.254 5.21-46.06 5.01-53.268-2.004-5.007-5.01-5.808-7.414-5.808-16.631.2-22.643 9.613-51.497 24.231-73.137 22.43-33.463 60.278-55.905 101.931-60.313 16.02-1.804 48.663-1.403 51.666.4Zm-701.3 2.204c-1.601 1.603-3.404 3.006-4.004 3.006-.601 0-.601-1.403 0-3.006.8-1.603 2.603-3.005 4.205-3.005 2.403 0 2.403.4-.2 3.005Zm69.89 5.01c-1.201 2.004 3.004 3.006 8.812 2.004 5.407-.602 12.215 2.204 12.215 5.009 0 1.603-1 3.006-2.202 3.006-1.002 0-1.603-.802-1.002-1.804s-.2-2.404-1.802-3.005c-1.802-.601-3.605 0-4.205 1.402-1.202 3.407-11.816 2.004-15.22-2.003-1.802-2.405-1.802-3.207.6-4.81 3.605-2.204 4.406-2.204 2.804.2Zm295.38 30.858c49.262 9.017 86.11 39.874 111.542 93.174 7.61 16.431 12.617 30.858 18.825 55.304 2.803 10.62 5.807 17.834 9.412 21.44 2.803 3.206 5.407 7.214 5.607 9.017.2 2.004.8 5.01 1.602 6.813 1.001 2.204-.2 4.208-3.204 6.212-4.406 3.005-4.606 3.606-3.405 25.848 6.008 110.207-34.043 183.544-111.543 204.383-12.015 3.206-22.028 4.408-40.852 4.408-28.036.2-43.055-3.005-61.88-12.623-35.245-18.234-56.672-41.278-76.498-83.156l-10.413-21.44-8.21 1.402c-4.406.802-19.826 1.804-34.244 2.405-14.219.4-30.84 1.202-36.647 1.403-5.808.4-11.015 0-11.415-1.002-1.001-1.603 4.205-4.409 9.011-4.609 1.603-.2 4.006-1.002 5.407-1.803 1.202-.802 3.605-1.002 5.207-.2 1.802.6 3.404-.602 4.406-3.608l1.602-4.608.8 4.608c.802 4.208 1.603 4.409 10.214 3.206 5.207-.801 10.013-2.204 10.814-3.406.8-1.403 3.004-1.403 7.009.2 6.208 2.605 32.241 2.806 33.643.401.6-1.002-1.202-10.019-4.005-20.438-9.012-34.264-11.815-56.105-11.815-96.782-.2-41.678 2.002-57.507 12.616-88.766 9.612-27.652 25.633-50.495 48.862-69.13 14.419-11.621 26.034-17.633 44.458-23.243 26.634-8.015 49.062-9.618 73.093-5.41Zm-303.39 45.886c20.026 6.612 45.458 23.644 57.874 38.672 21.228 25.849 30.24 54.903 28.637 92.975-1.602 40.676-14.619 69.33-52.868 116.819-7.009 8.616-12.215 16.43-11.815 17.232 1.202 1.803 16.621 1.202 21.828-.802 2.003-.801 3.404-.6 3.404.802 0 3.607-8.41 5.81-23.43 6.011-8.01.2-8.61.601-27.435 23.644-12.015 15.029-18.023 23.845-16.22 24.246 1.401.4 25.833-2.204 54.069-5.41 62.48-7.614 65.284-7.614 72.293-1.403 5.206 4.408 5.807 6.613 10.012 39.474 4.206 32.862 4.206 35.266 1.202 41.879-2.003 3.807-5.407 8.015-8.01 9.217-2.403 1.202-22.229 4.408-44.057 6.813a99442.136 99442.136 0 0 1-100.529 12.022c-37.248 4.609-62.48 6.813-64.483 5.811-7.41-3.807-8.21-13.225-6.608-87.564l1.602-71.334 16.02-21.24c9.012-11.621 25.633-33.062 37.048-47.689 11.415-14.627 24.431-33.663 28.837-42.079 7.61-14.828 8.01-16.03 7.21-31.66-.401-13.424-1.402-17.432-6.008-24.245-6.81-10.219-17.423-15.429-31.641-15.429-21.427.2-33.443 11.221-40.852 37.07-1.803 6.212-4.406 12.223-5.808 13.625-2.403 1.804-2.603-8.415-1.802-65.322.6-46.888 1.602-68.528 3.204-70.131 5.207-5.611 25.633-8.617 54.27-7.815 23.63.601 30.639 1.402 44.056 5.81Zm772.992 214.802c0 3.006-1.803 4.208-7.61 5.21-9.612 1.603-11.014-.6-4.005-6.211 6.408-5.01 11.615-4.61 11.615 1.001Zm-28.036 5.01c-1.002 1.603-2.203 1.603-3.405.4-1.201-1.202-1.401-3.205-.6-4.408 1-1.603 2.202-1.603 3.404-.4 1.202 1.202 1.402 3.206.6 4.408Zm-25.032-2.004c0 3.006-5.207 4.609-8.21 2.805-1.803-1.002-1.403-2.003 1.4-3.005 5.408-2.204 6.81-2.004 6.81.2Zm-55.472 1.202c2.203 2.204-.6 4.81-3.604 3.607-1.602-.801-2.403-2.004-1.802-3.006 1.201-2.204 3.604-2.404 5.406-.6ZM612.983 385.79c0 2.404-4.005 5.009-5.407 3.606-1.402-1.402 1.201-5.41 3.605-5.41 1 0 1.802.802 1.802 1.804Zm-22.028 3.005c0 1.603-2.604 3.206-6.008 3.607-4.005.601-6.008 0-6.008-1.603 0-2.204 1.803-3.006 10.614-4.609.8 0 1.402 1.002 1.402 2.605Zm345.443 43.08c-.601 1.203-2.804 2.205-4.606 2.205-2.603 0-2.603-.4.8-2.805 4.206-3.006 6.009-2.805 3.806.6Zm149.191 59.312c0 21.44-.6 29.455-2.403 30.056-3.404 1.203-278.557 35.066-279.358 34.265-1.202-1.203-7.41-57.308-6.409-58.11 1.202-1.402 268.144-34.664 279.76-35.065l8.41-.2v29.054Zm-406.12 52.699c1.401 1.403 3.604 2.404 5.006 2.404 1.401 0 2.603.802 2.603 2.004 0 3.206 8.01 6.412 13.017 5.21 2.403-.601 5.006-3.006 5.607-5.41 1.201-4.408 6.809-4.208 5.807.2-.4 1.403 1.202 3.807 3.605 5.41 4.205 3.006 5.607 8.616 2.002 8.616-1 0-2.002 1.403-2.002 3.206 0 2.806.2 2.806 3.204 0 3.404-3.406 8.01-4.207 9.612-1.603 2.203 3.607-1.401 10.42-5.607 10.42-2.403 0-3.204.601-2.002 1.603 3.604 2.405 7.009 10.42 5.607 12.824-1.002 1.403 0 1.803 2.603 1.202 5.207-1.402 10.814 2.806 8.611 6.212-1.201 2.204-10.814 2.605-44.857 2.404-24.031-.2-45.058-1.001-47.06-1.803-4.006-1.603-16.622-15.429-20.227-22.242-2.403-4.608-2.603-4.608-4.606-1.001-8.61 15.83-37.047 29.455-40.852 19.436-2.403-6.011-8.611-10.62-14.619-10.62-3.404 0-6.007-1.002-6.007-2.605 0-1.402-1.002-1.002-2.203 1.002-1.002 2.004-3.204 3.006-4.806 2.405-4.406-1.804-3.605-4.61 1.602-6.813 2.403-1.202 6.007-3.206 8.21-4.408 3.004-2.004 3.805-2.004 4.606-.2 1.402 3.806 4.205 3.205 5.607-1.203.601-2.004 5.808-6.011 11.615-8.817 12.216-5.81 29.037-6.211 35.045-.801 3.204 3.005 4.205 3.005 7.61.4 2.002-1.602 5.207-3.005 7.009-3.005 1.802 0 4.405-1.403 5.807-3.006 2.203-2.605 2.003-2.805-.8-1.803-1.803.801-3.205.2-3.205-1.202 0-1.603 1.602-2.004 4.406-1.403 2.603.802 5.807 0 7.61-1.603 1.802-1.603 5.206-3.206 7.61-3.607 2.402-.4 5.406-1.603 6.608-2.805 2.603-2.605 15.22-2.004 18.223 1.002Zm57.273 17.833c-1.002 5.01-5.608 5.61-5.608.802 0-2.405 1.202-4.208 3.205-4.208 1.802 0 2.803 1.403 2.403 3.406Zm-189.844 20.439c0 1.002-2.002 3.005-4.606 4.809-3.604 2.204-5.006 2.404-6.809.4-1.602-1.803-1.802-3.005 0-4.809 2.604-2.604 11.415-3.005 11.415-.4Zm-16.02 9.217c-1.402 1.603-3.405 3.006-4.406 3.006-1.202 0-1.001-1.403.4-3.006 1.402-1.603 3.405-3.006 4.406-3.006 1.202 0 1.001 1.403-.4 3.006Z"
						fill="#D10000"
					/>
					<path
						d="M769.584 25.713c1.001 3.006 13.617 4.81 13.617 2.004 0-2.004-6.408-4.408-11.615-4.408-1.602 0-2.403 1.202-2.002 2.404ZM368.87 197.636c-14.82 3.607-25.032 17.633-31.64 43.08-5.007 19.637-5.007 70.132.2 99.186 6.007 33.864 16.02 62.117 22.028 62.117 1.401 0 4.606-1.803 7.209-4.008 5.407-4.608 8.41-5.21 6.809-1.202-1.202 3.006 4.405 6.011 7.61 4.008 1.2-.802 1.802-.2 1.2 1.402-.6 2.004-4.405 2.806-12.215 2.806-6.608 0-11.414.801-11.414 2.003 0 3.407 18.023 22.843 24.23 26.05 7.61 4.007 23.23 3.606 31.441-.602 9.813-5.21 23.03-26.45 16.421-26.45-3.605 0-2.002-5.61 1.802-6.612 12.416-3.206 13.017-67.326 1.402-122.63-12.215-57.107-36.246-86.362-65.083-79.148Zm33.643 204.583c-3.004 1.804-6.408.401-4.806-2.204.6-1.002 2.603-1.202 4.205-.6 2.403.8 2.603 1.602.6 2.804Zm20.226-2.404c0 1.002-1.402 2.204-3.004 3.005-3.004 1.002-4.005-1.001-1.602-3.406 1.802-2.004 4.606-1.803 4.606.4Zm-27.435 4.208c.8 3.005 0 4.007-2.804 4.007-2.403 0-3.805-1.402-3.805-4.007 0-2.204 1.202-4.008 2.804-4.008 1.402 0 3.204 1.804 3.805 4.008Zm19.425-.2c0 1.001-1.402 2.404-3.205 3.005-4.405 1.803-4.806 1.603-4.806-1.803 0-1.603 1.803-3.006 4.005-3.006 2.203 0 4.006.801 4.006 1.803Z"
						fill="#000"
					/>
				</g>
				<path
					stroke="#979797"
					fill="#148224"
					mask="url(#c)"
					transform="rotate(-8 955.076 552.131)"
					d="M805.076 524.131h300v56h-300z"
				/>
			</g>
			<rect
				x={4.5}
				y={4.5}
				width={481}
				height={481}
				rx={26}
				transform="translate(354 69)"
				fill="#D8D8D8"
				opacity={0.8}
				stroke="#DE0C17"
				strokeWidth={9}
			/>
			<g
				filter="url(#d)"
				transform="rotate(1 -898.557 9748.952)"
				fill="#FFF"
				fillRule="nonzero"
			>
				<path d="M45.527 8.1c.114.502.171.866.171 1.094 0 .57-.216.957-.65 1.162-.432.206-1.082.308-1.947.308h-.667c-.24 0-.484-.023-.735-.068-.228-.023-.683-.074-1.367-.154-.684-.08-1.515-.182-2.495-.308-.98-.125-2.085-.256-3.316-.393-1.23-.137-2.495-.262-3.793-.376a217.584 217.584 0 0 0-3.914-.307 74.68 74.68 0 0 0-3.709-.171 284.21 284.21 0 0 0-3.298 3.571 93.484 93.484 0 0 0-3.384 3.948 64.601 64.601 0 0 0-3.28 4.427 51.902 51.902 0 0 0-2.992 5.007 47.848 47.848 0 0 1 3.47-3.401 16.862 16.862 0 0 1 3.52-2.393c1.242-.626 2.615-1.1 4.119-1.418 1.504-.32 3.258-.479 5.263-.479 1.436 0 2.73.137 3.88.41 1.15.274 2.13.713 2.94 1.316.808.604 1.43 1.396 1.862 2.376.433.98.65 2.165.65 3.555 0 .592-.04 1.219-.12 1.88-.08.66-.188 1.344-.325 2.05a13.605 13.605 0 0 1-1.76 4.41 20.534 20.534 0 0 1-3.06 3.845 25.139 25.139 0 0 1-3.913 3.161 31.362 31.362 0 0 1-4.34 2.393 25.847 25.847 0 0 1-4.324 1.52c-1.413.354-2.712.53-3.897.53-1.663 0-3.19-.256-4.58-.768-1.39-.513-2.586-1.254-3.589-2.222-1.002-.968-1.783-2.165-2.341-3.589-.558-1.424-.837-3.048-.837-4.87 0-1.39.148-2.758.444-4.102.433-1.982 1.236-3.954 2.41-5.913a39.222 39.222 0 0 1 4.152-5.674 56.754 56.754 0 0 1 5.162-5.178 76.03 76.03 0 0 1 5.434-4.392c-1.982.136-3.93.359-5.845.666a82.178 82.178 0 0 0-5.127.974c-1.503.342-2.723.673-3.657.992-.934.319-1.401.558-1.401.717 0 .183.137.29.41.325.273.034.706.108 1.299.222 1.299.274 2.261.53 2.888.77.627.239.951.426.974.563-.068.16-.364.24-.889.24h-.376a3.92 3.92 0 0 1-.478-.035 210.67 210.67 0 0 0-4.46-.393c-1.083-.08-1.897-.182-2.444-.307-.547-.126-.895-.314-1.043-.564C.074 12.806 0 12.407 0 11.86c0-.16.028-.41.085-.752.057-.341.177-.82.36-1.435.478-1.55 1.025-2.86 1.64-3.93a8.198 8.198 0 0 1 2.478-2.684C5.6 2.341 6.921 1.777 8.528 1.367c1.606-.41 3.651-.729 6.135-.957a90.075 90.075 0 0 1 4.888-.325C21.077.028 22.524 0 23.89 0c1.277 0 2.593.04 3.948.12 1.356.08 2.695.193 4.016.341 1.322.149 2.592.314 3.812.496 1.219.182 2.318.37 3.298.564.98.194 1.811.387 2.495.581.684.194 1.162.37 1.436.53.25.16.467.325.649.495.182.171.342.37.478.599.137.227.268.5.394.82.125.319.256.695.393 1.128l.717 2.427ZM31.07 26.764c0-.502-.136-1.037-.41-1.607-.273-.57-.683-1.093-1.23-1.572-.547-.479-1.236-.877-2.068-1.196-.832-.32-1.806-.479-2.923-.479-.911 0-1.885.16-2.922.479a16.805 16.805 0 0 0-3.093 1.316 23.132 23.132 0 0 0-2.99 1.948 21.366 21.366 0 0 0-2.65 2.392 15.484 15.484 0 0 0-2.016 2.666c-.547.923-.912 1.84-1.094 2.752A15.46 15.46 0 0 0 9.417 35a13.31 13.31 0 0 0-.086 1.504c0 .752.08 1.47.24 2.153a5.22 5.22 0 0 0 .768 1.795c.354.512.82.923 1.402 1.23.58.308 1.293.462 2.136.462 1.116 0 2.313-.297 3.589-.89 1.276-.592 2.552-1.36 3.828-2.306 1.276-.946 2.5-2 3.674-3.162a40.423 40.423 0 0 0 3.128-3.452c.911-1.14 1.635-2.205 2.17-3.196.536-.991.803-1.783.803-2.375ZM45.947 27.788c3.464-3.144 6.825-5.48 10.083-7.007 3.259-1.526 5.777-2.29 7.554-2.29.478 0 .923.2 1.333.598.41.4.735.86.974 1.385.24.524.359.911.359 1.162 0 .41-.16.712-.479.906-.319.193-.877.427-1.674.7l.615 1.402c.25.57.444 1.03.58 1.384.138.353.206.666.206.94 0 .547-.553 1.566-1.658 3.059-1.105 1.492-1.88 2.592-2.324 3.298-.444.707-.666 1.572-.666 2.598 0 1.686.774 2.53 2.324 2.53 1.595 0 4.09-1.493 7.485-4.478v2.085c-5.765 6.403-9.89 9.604-12.373 9.604-.889 0-1.52-.29-1.897-.872-.376-.58-.564-1.44-.564-2.58 0-1.8.65-4.41 1.948-7.827-3.326 3.691-5.799 6.317-7.417 7.878-1.617 1.561-2.95 2.341-3.999 2.341-.5 0-1.128-.432-1.88-1.298-.751-.866-1.418-1.988-1.999-3.367a10.938 10.938 0 0 1-.872-4.29c0-1.07.103-1.965.308-2.683.205-.717.604-1.452 1.196-2.204.593-.752 1.538-1.743 2.837-2.974Zm16.372-3.76c-5.924 2.712-10.145 5.013-12.663 6.905-2.518 1.89-3.777 3.84-3.777 5.844 0 .73.125 1.328.376 1.795.25.467.592.7 1.025.7.25 0 .695-.159 1.333-.478 2.393-1.413 4.58-3.253 6.563-5.52 1.982-2.267 4.363-5.35 7.143-9.246Z" />
				<path d="M96.406 36.128a274.216 274.216 0 0 1-4.272 4.136c-1.208 1.139-2.268 2.073-3.179 2.802-.911.73-1.703 1.26-2.375 1.59-.673.33-1.294.495-1.863.495-.82 0-1.498-.273-2.034-.82-.535-.547-.803-1.401-.803-2.563 0-.502.045-1.003.137-1.504.09-.502.25-1.054.478-1.658.228-.604.536-1.282.923-2.034.387-.752.877-1.629 1.47-2.632-1.094.228-2.228.638-3.401 1.23a26.727 26.727 0 0 0-3.504 2.137 46.465 46.465 0 0 0-3.452 2.735 76.4 76.4 0 0 0-3.281 3.024c-.182.183-.444.348-.786.496a2.56 2.56 0 0 1-1.026.222c-.455 0-.843-.13-1.162-.393-.319-.262-.478-.758-.478-1.487 0-.319.057-.763.17-1.333.115-.57.274-1.207.48-1.914.204-.706.45-1.452.734-2.239.285-.786.587-1.566.906-2.34a28.509 28.509 0 0 1 2.085-4.102 51.173 51.173 0 0 1 2.153-3.128c.66-.877 1.288-1.606 1.88-2.187.592-.581 1.156-1.009 1.692-1.282.535-.274 1.065-.41 1.59-.41.66 0 1.224.114 1.691.342.467.227.7.603.7 1.127 0 .228-.022.422-.068.582-.045.159-.136.324-.273.495-.137.171-.313.382-.53.632-.216.251-.495.57-.837.957a93.194 93.194 0 0 0-2.547 2.991 29.613 29.613 0 0 0-1.726 2.342c-.478.729-.9 1.446-1.264 2.153a50.679 50.679 0 0 0-1.162 2.427 23.426 23.426 0 0 1 5.366-4.597 29.993 29.993 0 0 1 3.828-2.017c1.413-.627 2.974-1.168 4.683-1.624.888-1.914 1.629-3.366 2.221-4.358a41.555 41.555 0 0 1 1.436-2.273c.57-.843 1.287-1.264 2.153-1.264.296 0 .558.125.786.376.228.25.428.57.598.957.171.387.308.82.41 1.299.103.478.177.945.223 1.401 0 .182-.086.404-.257.666-.17.263-.387.559-.649.89-.262.33-.547.677-.855 1.042a19.88 19.88 0 0 0-.837 1.06c0 .797-.091 1.469-.273 2.016a3.54 3.54 0 0 1-.24.461 1.949 1.949 0 0 1-.427.462c-.194.16-.456.336-.786.53-.33.193-.769.415-1.316.666-.068.16-.21.399-.427.718a11.574 11.574 0 0 0-1.23 2.392c-.172.456-.257.9-.257 1.333 0 .456.114.798.342 1.026.228.228.524.342.888.342.342 0 .713-.08 1.111-.24.4-.16.883-.427 1.453-.803a45.11 45.11 0 0 0 2.068-1.47c.809-.604 1.783-1.35 2.922-2.238v2.358Z" />
				<path d="M112.275 31.582c-3.304 4.375-5.816 7.485-7.536 9.331-1.72 1.846-3.128 2.769-4.221 2.769-.866 0-1.664-.36-2.393-1.077-.73-.718-1.293-1.686-1.692-2.905-.399-1.22-.598-2.524-.598-3.914 0-.911.085-1.732.256-2.46.171-.73.496-1.533.974-2.41.479-.878 1.111-1.83 1.897-2.854a69.695 69.695 0 0 1 2.889-3.487l1.726-2.016c.467-.547.922-.918 1.367-1.111.444-.194 1.168-.29 2.17-.29.73 0 1.424.096 2.085.29.661.193.991.393.991.598 0 .41-.336 1.15-1.008 2.222-.672 1.07-1.754 2.375-3.247 3.913-1.493 1.538-3.219 3.048-5.178 4.529-.433 1.344-.65 2.37-.65 3.076 0 .98.376 1.47 1.128 1.47.274 0 .73-.234 1.367-.7.638-.468 1.715-1.368 3.23-2.701a311.478 311.478 0 0 1 4.085-3.538c.889-.774 1.92-1.93 3.093-3.469 1.174-1.538 2.125-2.694 2.854-3.47 1.686-1.776 2.837-2.933 3.452-3.468.616-.536 1.208-.804 1.778-.804.547 0 .917.171 1.11.513.194.342.291 1.037.291 2.085 0 .479-.046.866-.137 1.162-.09.296-.279.678-.564 1.145-.284.467-.86 1.328-1.726 2.58a3357.88 3357.88 0 0 1-3.076 4.444 17.626 17.626 0 0 0-1.675 2.99c-.478 1.083-.717 1.898-.717 2.445 0 1.185.467 1.777 1.4 1.777.776 0 1.676-.319 2.701-.957 1.026-.638 2.598-1.789 4.717-3.452v2.29c-2.666 2.46-4.637 4.25-5.913 5.366-1.276 1.117-2.381 1.96-3.316 2.53-.934.57-1.823.854-2.666.854-1.914 0-2.87-1.14-2.87-3.418 0-.866.284-2.034.854-3.503.57-1.47 1.492-3.595 2.768-6.375Z" />
				<path d="M140.62 31.582c-1.663 2.21-3.179 4.085-4.546 5.623-1.367 1.538-2.592 2.785-3.674 3.742-1.083.957-2.028 1.652-2.837 2.085-.809.433-1.498.65-2.068.65-.638 0-1.242-.205-1.811-.616-.57-.41-1.066-.968-1.487-1.674-.422-.707-.758-1.527-1.009-2.461a11.297 11.297 0 0 1-.376-2.94c0-.911.103-1.783.308-2.615.205-.831.541-1.68 1.008-2.546.467-.866 1.083-1.8 1.846-2.803a65.81 65.81 0 0 1 2.854-3.452l1.709-2.016c.25-.297.479-.536.684-.718.205-.182.438-.325.7-.427.262-.103.564-.171.906-.206a13.04 13.04 0 0 1 1.265-.05c.342 0 .689.028 1.042.085.353.057.684.125.991.205.308.08.559.176.752.29.194.114.29.217.29.308 0 .319-.21.843-.631 1.572-.422.73-1.037 1.584-1.846 2.564-.81.98-1.795 2.033-2.957 3.161a39.794 39.794 0 0 1-3.999 3.367c-.433 1.276-.65 2.301-.65 3.076 0 .98.377 1.47 1.129 1.47.137 0 .381-.051.735-.154.353-.102.786-.28 1.299-.53.512-.25 1.099-.592 1.76-1.025.66-.433 1.378-.991 2.153-1.675l4.102-3.555c.387-.341.86-.831 1.418-1.47a52.442 52.442 0 0 0 1.675-2.016c.558-.706 1.094-1.373 1.606-2a31.07 31.07 0 0 1 1.248-1.452 116.59 116.59 0 0 1 2.119-2.239 20.805 20.805 0 0 1 1.367-1.299c.365-.307.672-.507.923-.598.25-.091.524-.137.82-.137.547 0 .918.171 1.111.513.194.342.29 1.037.29 2.085 0 .456-.068.883-.204 1.282-.137.399-.4.911-.786 1.538a48.947 48.947 0 0 1-1.675 2.478c-.73 1.025-1.675 2.37-2.837 4.033-.32.456-.632.974-.94 1.555-.308.581-.587 1.18-.838 1.795-.159.387-.324.877-.495 1.47a6.16 6.16 0 0 0-.256 1.708c0 .41.062.78.188 1.111.125.33.347.598.666.804.41-.16.906-.44 1.487-.838.58-.399 1.145-.792 1.692-1.18a97.44 97.44 0 0 1 1.982-1.418 69.8 69.8 0 0 0 2.94-2.204v2.29a515.133 515.133 0 0 0-3.418 3.11 156.702 156.702 0 0 1-3.453 3.076 5.856 5.856 0 0 1 .274 1.744c0 1.64-.66 3.099-1.982 4.375-1.322 1.276-3.259 2.563-5.811 3.862-.068.045-.256.12-.564.222-.308.103-.684.205-1.128.308-.444.102-.923.193-1.435.273-.513.08-1.009.12-1.487.12-1.732 0-2.598-.581-2.598-1.743 0-.547.194-1.1.581-1.658.387-.558.877-1.1 1.47-1.624a17.365 17.365 0 0 1 1.982-1.504c.73-.478 1.436-.928 2.12-1.35.683-.421 1.298-.809 1.845-1.162.547-.353.934-.643 1.162-.871a5.804 5.804 0 0 1-1.35-1.521 3.708 3.708 0 0 1-.564-2c0-.57.08-1.128.24-1.675.159-.547.375-1.139.649-1.777.273-.638.61-1.339 1.008-2.102.399-.763.838-1.646 1.316-2.649Zm-.068 13.911c-.388.41-.81.78-1.265 1.111-.456.33-.877.627-1.265.889-.387.262-.712.501-.974.717-.262.217-.393.416-.393.599 0 .114.04.216.12.307.08.091.268.137.564.137.319 0 .644-.131.974-.393.33-.262.638-.581.923-.957.285-.376.54-.78.769-1.214.228-.432.41-.831.547-1.196Z" />
				<path d="M155.566 27.788c3.464-3.144 6.825-5.48 10.083-7.007 3.259-1.526 5.777-2.29 7.554-2.29.479 0 .923.2 1.333.598.41.4.735.86.974 1.385.24.524.359.911.359 1.162 0 .41-.16.712-.478.906-.32.193-.878.427-1.675.7l.615 1.402c.25.57.444 1.03.581 1.384.137.353.205.666.205.94 0 .547-.552 1.566-1.658 3.059-1.105 1.492-1.88 2.592-2.324 3.298-.444.707-.666 1.572-.666 2.598 0 1.686.774 2.53 2.324 2.53 1.595 0 4.09-1.493 7.485-4.478v2.085c-5.765 6.403-9.89 9.604-12.373 9.604-.888 0-1.52-.29-1.897-.872-.376-.58-.564-1.44-.564-2.58 0-1.8.65-4.41 1.948-7.827-3.326 3.691-5.799 6.317-7.417 7.878-1.617 1.561-2.95 2.341-3.999 2.341-.5 0-1.127-.432-1.88-1.298-.751-.866-1.418-1.988-1.999-3.367a10.938 10.938 0 0 1-.872-4.29c0-1.07.103-1.965.308-2.683.205-.717.604-1.452 1.196-2.204.593-.752 1.538-1.743 2.837-2.974Zm16.372-3.76c-5.924 2.712-10.145 5.013-12.663 6.905-2.518 1.89-3.777 3.84-3.777 5.844 0 .73.125 1.328.376 1.795.25.467.592.7 1.025.7.251 0 .695-.159 1.333-.478 2.393-1.413 4.58-3.253 6.563-5.52 1.982-2.267 4.363-5.35 7.143-9.246ZM220.288 33.975v2.29c-2.438 2.392-4.426 4.25-5.964 5.57-1.538 1.323-2.974 2.348-4.307 3.077-1.333.73-2.638 1.094-3.914 1.094-1.253 0-2.404-.496-3.452-1.487-1.048-.991-1.868-2.29-2.46-3.896-.593-1.607-.89-3.31-.89-5.11 0-1.55.342-2.928 1.026-4.136.684-1.208 2.005-2.769 3.965-4.683 2.324-2.278 4.483-4.039 6.477-5.28 1.994-1.242 3.56-1.863 4.7-1.863.82 0 1.515.285 2.085.854.57.57.854 1.288.854 2.154 0 .729-.376 1.766-1.128 3.11-.752 1.344-1.595 2.512-2.53 3.503-.933.992-1.674 1.487-2.22 1.487-.593 0-.89-.319-.89-.957.023-.182.04-.353.052-.513.011-.16.017-.319.017-.478 0-.273-.097-.427-.29-.461-.194-.035-.428.05-.701.256-2.279 1.595-3.84 2.717-4.683 3.367-.843.649-1.51 1.304-2 1.965-.49.66-.734 1.356-.734 2.085 0 1.344.433 2.438 1.298 3.281.866.843 1.994 1.265 3.384 1.265 1.436 0 3.162-.553 5.178-1.658 2.017-1.105 4.393-2.717 7.127-4.836ZM268.022 36.196c-2.552 3.03-4.694 5.304-6.426 6.82-1.731 1.514-3.178 2.272-4.34 2.272-.82 0-1.567-.16-2.24-.478-.671-.32-1.315-.82-1.93-1.504s-1.23-1.567-1.846-2.65c-.615-1.082-1.276-2.398-1.982-3.947a305.277 305.277 0 0 1-3.265 3.76c-.808.911-1.446 1.595-1.914 2.05-.467.456-.809.741-1.025.855a1.3 1.3 0 0 1-.598.17c-.365 0-.724-.216-1.077-.648-.353-.433-.666-1.009-.94-1.727a14.433 14.433 0 0 1-.666-2.41c-.171-.888-.257-1.8-.257-2.734 0-.455.012-.871.035-1.247.022-.376.102-.78.239-1.214.137-.432.347-.928.632-1.486.285-.559.7-1.26 1.248-2.102 1.55-2.416 2.894-4.187 4.033-5.315 1.14-1.128 2.233-1.692 3.281-1.692.661 0 1.225.114 1.692.342.467.227.7.603.7 1.127 0 .228-.022.422-.068.582-.045.159-.13.33-.256.512a5.354 5.354 0 0 1-.53.633c-.228.239-.512.552-.854.94-1.869 2.073-3.242 3.748-4.119 5.024-.877 1.276-1.316 2.222-1.316 2.837 0 .296.069.518.205.666a.633.633 0 0 0 .479.222c.16 0 .45-.159.871-.478.422-.319.9-.723 1.436-1.213a67.854 67.854 0 0 0 1.709-1.624c.604-.592 1.18-1.168 1.726-1.726.547-.558 1.025-1.048 1.436-1.47.41-.421.706-.723.888-.905 2.849-2.803 5.247-4.882 7.195-6.238 1.948-1.356 3.538-2.034 4.768-2.034.342 0 .65.108.923.325.273.216.507.512.7.888.194.376.342.81.445 1.3.103.49.154 1.008.154 1.554a7.593 7.593 0 0 1-.684 3.18c-.456 1.002-1.162 2.004-2.119 3.007-.957 1.003-2.17 2.045-3.64 3.127-1.47 1.083-3.219 2.25-5.247 3.504.684 1.025 1.288 1.771 1.812 2.239.524.467 1.185.7 1.982.7.502 0 1.003-.097 1.504-.29.501-.194 1.077-.524 1.726-.992.65-.467 1.413-1.088 2.29-1.862.878-.775 1.954-1.755 3.23-2.94v2.29Zm-13.5-.547c.728-.478 1.549-1.128 2.46-1.948a32.65 32.65 0 0 0 2.58-2.597 20.078 20.078 0 0 0 2.034-2.684c.547-.877.82-1.623.82-2.238 0-.456-.159-.684-.478-.684-.41 0-1.014.228-1.811.684-.798.455-1.686 1.082-2.666 1.88a39.065 39.065 0 0 0-3.076 2.82 40.005 40.005 0 0 0-3.077 3.503c.89 0 1.96.421 3.213 1.264Z" />
				<path d="M284.61 25.942c-.457.89-1.077 1.829-1.864 2.82a83.437 83.437 0 0 0-2.324 3.076 24.88 24.88 0 0 0-1.982 3.23c-.559 1.094-.838 2.176-.838 3.247 0 .502.148.906.445 1.214.296.307.843.461 1.64.461.98 0 2.62-.843 4.922-2.53-.273-1.093-.41-2.095-.41-3.007 0-.182.023-.501.068-.957.046-.456.131-.963.257-1.52.125-.56.302-1.14.53-1.744a6.376 6.376 0 0 1 .922-1.658 4.831 4.831 0 0 1 1.402-1.23c.547-.32 1.207-.479 1.982-.479.798 0 1.413.143 1.846.427.433.285.65.826.65 1.624 0 .957-.223 1.982-.667 3.076-.445 1.094-1.054 2.29-1.829 3.59.023.181.143.33.359.443.217.114.473.171.77.171.592 0 1.19-.21 1.794-.632a56.425 56.425 0 0 0 2.307-1.726v2.29a49.498 49.498 0 0 1-1.795 1.606c-.512.433-1.008.787-1.487 1.06-.478.273-.98.473-1.504.598s-1.139.188-1.845.188c-.274 0-.581-.057-.923-.17-2.962 3.508-5.56 5.263-7.793 5.263a4.437 4.437 0 0 1-1.948-.427 4.74 4.74 0 0 1-1.521-1.145 5.303 5.303 0 0 1-.991-1.692 6.034 6.034 0 0 1-.36-2.102c0-.866.109-1.869.325-3.008.217-1.14.598-2.222 1.145-3.247.73-1.367 1.442-2.484 2.137-3.35.695-.866 1.27-1.572 1.726-2.119-.114-.205-.325-.479-.633-.82a28.801 28.801 0 0 0-2.05-2.05c-.354-.32-.621-.548-.804-.685-.341.661-.769 1.504-1.281 2.53a42.23 42.23 0 0 1-1.846 3.28 37.9 37.9 0 0 1-2.461 3.504 20.732 20.732 0 0 1-3.127 3.196v-2.222a37.507 37.507 0 0 0 1.538-1.948c.433-.592.82-1.128 1.162-1.606a24.465 24.465 0 0 0 2.187-4.016 76.694 76.694 0 0 1 1.983-4.222c-.752-.615-1.128-1.048-1.128-1.298 0-.183.085-.388.256-.616.17-.228.382-.455.632-.683a13.644 13.644 0 0 1 1.47-1.162 6.072 6.072 0 0 1 1.025-.53c.41-.171.82-.256 1.231-.256.342 0 .815.04 1.418.12.604.079 1.134.301 1.59.666.98.797 1.766 1.492 2.358 2.085.593.592 1.043 1.1 1.35 1.52.308.422.507.764.598 1.026.092.262.137.461.137.598 0 .274-.08.57-.24.889-.159.319-.33.672-.512 1.06Z" />
				<path d="M314.97 33.975v2.29c-2.438 2.392-4.426 4.25-5.964 5.57-1.538 1.323-2.974 2.348-4.307 3.077-1.333.73-2.637 1.094-3.913 1.094-1.253 0-2.404-.496-3.452-1.487-1.048-.991-1.869-2.29-2.461-3.896-.593-1.607-.889-3.31-.889-5.11 0-1.55.342-2.928 1.026-4.136.683-1.208 2.005-2.769 3.964-4.683 2.325-2.278 4.484-4.039 6.477-5.28 1.994-1.242 3.56-1.863 4.7-1.863.82 0 1.515.285 2.085.854.57.57.855 1.288.855 2.154 0 .729-.376 1.766-1.128 3.11-.752 1.344-1.595 2.512-2.53 3.503-.934.992-1.674 1.487-2.221 1.487-.593 0-.889-.319-.889-.957.023-.182.04-.353.051-.513.012-.16.017-.319.017-.478 0-.273-.096-.427-.29-.461-.194-.035-.427.05-.7.256-2.28 1.595-3.84 2.717-4.683 3.367-.844.649-1.51 1.304-2 1.965-.49.66-.735 1.356-.735 2.085 0 1.344.433 2.438 1.299 3.281.866.843 1.994 1.265 3.384 1.265 1.435 0 3.161-.553 5.178-1.658s4.392-2.717 7.126-4.836Z" />
				<path d="M356.85 36.128a274.212 274.212 0 0 1-4.272 4.136c-1.208 1.139-2.267 2.073-3.179 2.802-.911.73-1.703 1.26-2.375 1.59-.673.33-1.293.495-1.863.495-.82 0-1.498-.273-2.034-.82-.535-.547-.803-1.401-.803-2.563 0-.866.216-1.926.65-3.18.432-1.252 1.196-2.78 2.29-4.58a93.08 93.08 0 0 0 1.179-1.947c.444-.752.883-1.51 1.316-2.273.432-.764.808-1.476 1.127-2.137.32-.66.513-1.162.582-1.504a27.698 27.698 0 0 0-3.572 2.923 409.5 409.5 0 0 0-3.23 3.196 198.319 198.319 0 0 0-3.452 3.469 100.316 100.316 0 0 0-3.247 3.503c-1.459 1.64-2.632 2.877-3.521 3.709-.889.831-1.72 1.247-2.495 1.247-.479 0-.9-.182-1.265-.547-.364-.364-.547-.9-.547-1.606 0-.501.183-1.282.547-2.341.365-1.06.878-2.285 1.538-3.675.342-.729.661-1.395.957-2a26.605 26.605 0 0 0 1.64-4.221c.252-.842.502-1.868.753-3.075a37.854 37.854 0 0 0-1.196 1.503c-.342.456-.673.9-.992 1.333a43.21 43.21 0 0 1-2.222 2.769 221.794 221.794 0 0 1-3.93 4.358 134.695 134.695 0 0 1-3.486 3.64 81.352 81.352 0 0 1-1.538 1.504c-.433.41-.815.74-1.145.991-.33.25-.627.433-.889.547-.262.114-.507.17-.735.17-.364 0-.723-.216-1.076-.648-.354-.433-.667-1.009-.94-1.727a14.433 14.433 0 0 1-.667-2.41c-.17-.888-.256-1.8-.256-2.734 0-.615.074-1.259.222-1.93a6.008 6.008 0 0 1 .718-1.83 4.451 4.451 0 0 1 1.281-1.367c.524-.364 1.151-.546 1.88-.546.661 0 1.22.113 1.675.341.456.228.684.593.684 1.094 0 .228-.086.467-.257.718-.17.25-.359.495-.564.735-.205.239-.398.473-.58.7-.183.228-.286.433-.308.616-.023.022-.034.136-.034.341 0 .388.12.656.358.804.24.148.45.222.633.222.182 0 .706-.41 1.572-1.23a89.204 89.204 0 0 0 3.213-3.248 46.89 46.89 0 0 0 3.845-4.648 136.646 136.646 0 0 1 4.255-5.503c.342-.41.678-.798 1.009-1.162a7.41 7.41 0 0 1 1.042-.957c.365-.274.764-.49 1.197-.65.432-.16.934-.239 1.503-.239.16 0 .394.154.701.462.308.307.615.7.923 1.179.308.478.575.991.803 1.538.228.547.342 1.06.342 1.538 0 .342-.046.672-.137.991-.09.32-.228.707-.41 1.162a23.43 23.43 0 0 1-1.828 3.623 89.416 89.416 0 0 0-1.932 3.247 52.81 52.81 0 0 1-2 3.18 63.063 63.063 0 0 0-2.135 3.383 90.083 90.083 0 0 0 4.306-4.05 126.612 126.612 0 0 0 7.058-7.725c1.083-1.287 2.194-2.603 3.333-3.948.342-.41.678-.797 1.008-1.162a7.41 7.41 0 0 1 1.043-.957c.364-.273.763-.49 1.196-.65.433-.159.934-.239 1.504-.239.16 0 .393.16.7.479.308.319.616.712.923 1.18.308.466.581.979.82 1.537.24.558.36 1.077.36 1.555 0 .342-.063.661-.188.957-.126.297-.314.684-.564 1.163a52.117 52.117 0 0 1-1.812 3.212 394.308 394.308 0 0 1-1.692 2.735c-.512.82-.951 1.55-1.316 2.187-.364.638-.592 1.162-.683 1.573a3.013 3.013 0 0 0-.103.717c0 .456.114.798.342 1.026.228.228.524.342.889.342.341 0 .712-.08 1.11-.24.4-.16.883-.427 1.453-.803a45.11 45.11 0 0 0 2.068-1.47 178.03 178.03 0 0 0 2.922-2.238v2.358Z" />
				<path d="M362.192 35.137v.854c0 1.345.33 2.393.991 3.145.661.752 1.527 1.128 2.598 1.128 1.117 0 2.273-.262 3.47-.786 1.196-.525 2.386-1.22 3.571-2.085 1.185-.866 2.632-2.028 4.34-3.487v2.085c-2.574 3.1-4.99 5.475-7.245 7.127-2.256 1.652-4.546 2.478-6.87 2.478-2.028 0-3.635-.786-4.82-2.359-1.185-1.572-1.777-3.725-1.777-6.46 0-2.392.558-4.563 1.675-6.51 1.116-1.95 2.94-4.006 5.468-6.17 1.732-1.481 3.453-2.598 5.162-3.35 1.709-.752 3.235-1.128 4.58-1.128 1.07 0 1.92.245 2.546.735.627.49.94 1.225.94 2.205 0 1.435-.535 2.865-1.606 4.29-1.071 1.423-2.706 2.836-4.905 4.237-2.2 1.402-4.905 2.752-8.118 4.05Zm.342-2.222c2.05-.797 3.805-1.789 5.264-2.974 1.458-1.184 2.535-2.318 3.23-3.4.695-1.083 1.042-1.875 1.042-2.376 0-.524-.24-.786-.718-.786-.41 0-1.076.262-2 .786-.922.524-1.856 1.208-2.802 2.05a15.094 15.094 0 0 0-2.546 2.974 9.606 9.606 0 0 0-1.47 3.726Z" />
				<path d="M392.827 38.589a666.43 666.43 0 0 0 8.1-7.263c2.256-2.062 4.028-3.686 5.315-4.87a98.554 98.554 0 0 1 3.401-3.009c.98-.82 1.607-1.23 1.88-1.23.524-.023 1.026.518 1.504 1.623.479 1.105.718 1.988.718 2.65 0 .432-.724 1.452-2.17 3.058-1.448 1.607-2.53 2.889-3.248 3.846-.717.957-1.076 1.96-1.076 3.007 0 .616.205 1.111.615 1.487.41.376.9.564 1.47.564.66 0 1.452-.342 2.375-1.025.923-.684 2.376-1.903 4.358-3.657v2.426c-1.982 1.869-3.783 3.48-5.4 4.837-1.618 1.356-3.025 2.37-4.222 3.042-1.196.672-2.193 1.008-2.99 1.008-.707 0-1.3-.268-1.778-.803-.478-.536-.717-1.202-.717-2 0-.774.136-1.56.41-2.358.273-.798.695-1.743 1.264-2.837.57-1.094 1.322-2.41 2.256-3.948l2.564-4.221c-2.324 1.891-4.387 3.714-6.187 5.469-1.8 1.754-3.27 3.287-4.409 4.597-1.14 1.31-2.04 2.341-2.7 3.093-1.276 1.413-2.461 2.12-3.555 2.12-1.185 0-1.777-.844-1.777-2.53 0-.684.444-1.908 1.333-3.674s2.153-4.016 3.794-6.75c.137-.183.205-.468.205-.855 0-.456-.228-.684-.684-.684-.501 0-1.224.473-2.17 1.419-.946.945-2.774 2.922-5.486 5.93-.752.843-1.6 1.942-2.546 3.298-.946 1.356-1.624 2.262-2.034 2.717-.41.456-.82.684-1.23.684-.82 0-1.584-.73-2.29-2.188-.707-1.458-1.06-3.155-1.06-5.092 0-1.413.233-2.632.7-3.657.468-1.026 1.191-2.302 2.171-3.829 1.527-2.21 2.774-3.788 3.743-4.734.968-.945 1.988-1.418 3.059-1.418.66 0 1.219.131 1.675.393.455.262.683.621.683 1.077 0 .478-.416 1.264-1.247 2.358-.832 1.094-1.886 2.222-3.162 3.384-.684.66-1.333 1.475-1.948 2.444-.616.968-.923 1.669-.923 2.102 0 .615.24.923.718.923.387 0 1.367-.798 2.94-2.393 1.571-1.595 3.297-3.332 5.177-5.212 1.88-1.88 3.623-3.441 5.23-4.683 1.606-1.242 2.968-1.863 4.084-1.863.684 0 1.248.257 1.692.77.444.512.667 1.144.667 1.896 0 .502-.342 1.407-1.026 2.718-.683 1.31-1.68 2.928-2.99 4.853-1.31 1.926-3.003 4.255-5.076 6.99Z" />
				<path d="M431.972 31.582c-3.304 4.375-5.816 7.485-7.536 9.331-1.72 1.846-3.128 2.769-4.221 2.769-.866 0-1.664-.36-2.393-1.077-.73-.718-1.293-1.686-1.692-2.905-.399-1.22-.598-2.524-.598-3.914 0-.911.085-1.732.256-2.46.171-.73.496-1.533.974-2.41.479-.878 1.111-1.83 1.897-2.854a69.695 69.695 0 0 1 2.889-3.487l1.726-2.016c.467-.547.922-.918 1.367-1.111.444-.194 1.168-.29 2.17-.29.73 0 1.424.096 2.085.29.661.193.991.393.991.598 0 .41-.336 1.15-1.008 2.222-.672 1.07-1.754 2.375-3.247 3.913-1.492 1.538-3.219 3.048-5.178 4.529-.433 1.344-.65 2.37-.65 3.076 0 .98.376 1.47 1.128 1.47.274 0 .73-.234 1.368-.7.638-.468 1.714-1.368 3.23-2.701a311.484 311.484 0 0 1 4.084-3.538c.889-.774 1.92-1.93 3.093-3.469 1.174-1.538 2.125-2.694 2.854-3.47 1.686-1.776 2.837-2.933 3.452-3.468.616-.536 1.208-.804 1.778-.804.547 0 .917.171 1.11.513.194.342.291 1.037.291 2.085 0 .479-.045.866-.137 1.162-.09.296-.279.678-.564 1.145-.284.467-.86 1.328-1.726 2.58-.866 1.254-1.891 2.735-3.076 4.444a17.626 17.626 0 0 0-1.675 2.99c-.478 1.083-.717 1.898-.717 2.445 0 1.185.467 1.777 1.4 1.777.776 0 1.676-.319 2.701-.957 1.026-.638 2.598-1.789 4.717-3.452v2.29c-2.666 2.46-4.637 4.25-5.913 5.366-1.276 1.117-2.381 1.96-3.316 2.53-.934.57-1.823.854-2.666.854-1.914 0-2.87-1.14-2.87-3.418 0-.866.284-2.034.854-3.503.57-1.47 1.492-3.595 2.768-6.375ZM472.631 14.629c2.393.114 4.102.273 5.127.478 1.026.206 1.539.616 1.539 1.23 0 .274-.086.462-.257.565-.17.102-.45.182-.837.24a53.85 53.85 0 0 0-1.367.221c-.775.137-2.051.405-3.829.804-1.777.398-2.757.598-2.939.598-.889 0-1.333-.559-1.333-1.675 0-1.003.21-2.29.632-3.862a20.943 20.943 0 0 1 1.71-4.393c.717-1.355 1.475-2.318 2.272-2.888.935-.66 2.387-1.327 4.358-2 1.971-.671 4.181-1.241 6.631-1.708 2.45-.467 4.688-.7 6.716-.7 1.026 0 1.783.142 2.273.426.49.285.838.673 1.043 1.162.205.49.547 1.487 1.025 2.991.456 1.39.684 2.974.684 4.751 0 2.165-.502 4.033-1.504 5.606-1.003 1.572-2.393 3.019-4.17 4.34-1.777 1.322-4.882 3.367-9.314 6.136-4.432 2.768-7.878 4.984-10.34 6.648-.227.16-.694.461-1.4.905-.707.445-1.334.906-1.88 1.385-.548.478-1.106 1.093-1.675 1.845 3.053-.296 7.884-1.128 14.492-2.495 1.8-.387 3.549-.814 5.246-1.281 1.698-.468 2.718-.701 3.06-.701.57 0 .854.285.854.854 0 .524-.12 1.168-.359 1.931-.24.764-.587 1.539-1.042 2.325a8.678 8.678 0 0 1-1.607 2.033c-3.008 2.803-8.818 4.204-17.432 4.204-2.233 0-3.725-.353-4.477-1.06-.456-.41-.934-1.332-1.436-2.768-.5-1.435-.752-2.495-.752-3.178 0-1.185.581-2.638 1.744-4.358 1.162-1.72 2.757-3.487 4.785-5.298a40.495 40.495 0 0 1 6.699-4.837c7.428-4.238 11.37-6.516 11.826-6.835 1.664-1.14 2.968-2.29 3.914-3.453.945-1.162 1.418-2.096 1.418-2.802 0-.638-.256-1.134-.769-1.487-.513-.353-1.236-.53-2.17-.53-1.481 0-3.264.268-5.35.803-2.084.536-4.192 1.31-6.323 2.324-2.13 1.014-3.959 2.182-5.486 3.504ZM523.022 4.99c1.071.479 1.851 1.26 2.341 2.342.49 1.082.735 2.683.735 4.802 0 3.213-.643 6.676-1.93 10.39a41.439 41.439 0 0 1-5.401 10.46c-2.313 3.258-4.962 5.947-7.947 8.066-3.35 2.37-6.095 3.554-8.237 3.554-1.664 0-3.225-.5-4.683-1.503-1.458-1.003-2.62-2.433-3.486-4.29-.866-1.857-1.3-4.027-1.3-6.511 0-3.464.952-7.104 2.855-10.92a42.251 42.251 0 0 1 7.246-10.34c2.928-3.076 5.981-5.446 9.16-7.11 3.179-1.663 5.908-2.244 8.186-1.743 1.481.32 2.302 1.254 2.461 2.803Zm-7.861 6.7 1.196-2.496a40.376 40.376 0 0 0-3.555 2.017c-1.025.66-2.204 1.595-3.537 2.803-1.333 1.207-2.729 2.723-4.187 4.546-2.37 3.03-4.159 5.964-5.366 8.8-1.208 2.838-1.812 5.247-1.812 7.23 0 2.848.957 4.272 2.871 4.272 1.094 0 2.66-.592 4.7-1.777s4.198-2.814 6.477-4.888a36.584 36.584 0 0 0 5.76-6.733c1.651-2.484 2.916-4.933 3.793-7.349.877-2.415 1.316-4.477 1.316-6.186 0-1.094-.24-1.943-.718-2.547-.478-.604-1.082-.905-1.811-.905-.684 0-1.407.262-2.17.786-.764.524-1.75 1.333-2.957 2.426ZM534.038 14.629c2.392.114 4.101.273 5.127.478 1.025.206 1.538.616 1.538 1.23 0 .274-.086.462-.257.565-.17.102-.45.182-.837.24-.387.056-.843.13-1.367.221-.775.137-2.051.405-3.828.804-1.778.398-2.757.598-2.94.598-.888 0-1.333-.559-1.333-1.675 0-1.003.211-2.29.633-3.862a20.943 20.943 0 0 1 1.709-4.393c.717-1.355 1.475-2.318 2.272-2.888.935-.66 2.387-1.327 4.358-2 1.971-.671 4.182-1.241 6.631-1.708 2.45-.467 4.689-.7 6.717-.7 1.025 0 1.783.142 2.273.426.49.285.837.673 1.042 1.162.205.49.547 1.487 1.025 2.991.456 1.39.684 2.974.684 4.751 0 2.165-.501 4.033-1.504 5.606-1.003 1.572-2.393 3.019-4.17 4.34-1.777 1.322-4.882 3.367-9.314 6.136-4.432 2.768-7.878 4.984-10.34 6.648-.227.16-.694.461-1.4.905-.707.445-1.334.906-1.88 1.385-.547.478-1.106 1.093-1.675 1.845 3.053-.296 7.884-1.128 14.492-2.495 1.8-.387 3.549-.814 5.247-1.281 1.697-.468 2.717-.701 3.059-.701.57 0 .854.285.854.854 0 .524-.12 1.168-.359 1.931-.239.764-.587 1.539-1.042 2.325a8.678 8.678 0 0 1-1.607 2.033c-3.008 2.803-8.818 4.204-17.431 4.204-2.233 0-3.726-.353-4.478-1.06-.456-.41-.934-1.332-1.435-2.768-.502-1.435-.752-2.495-.752-3.178 0-1.185.58-2.638 1.743-4.358 1.162-1.72 2.757-3.487 4.785-5.298a40.495 40.495 0 0 1 6.7-4.837c7.428-4.238 11.37-6.516 11.825-6.835 1.664-1.14 2.968-2.29 3.914-3.453.946-1.162 1.418-2.096 1.418-2.802 0-.638-.256-1.134-.769-1.487-.512-.353-1.236-.53-2.17-.53-1.481 0-3.264.268-5.35.803-2.084.536-4.192 1.31-6.322 2.324-2.131 1.014-3.96 2.182-5.486 3.504ZM565.014 13.398c-.66-.387-1.128-.808-1.401-1.264-.274-.456-.41-1.208-.41-2.256 0-1.458.763-2.78 2.29-3.965 1.526-1.185 3.68-2.113 6.46-2.786 2.78-.672 5.89-1.008 9.33-1.008 3.67 0 6.427.672 8.272 2.017 1.846 1.344 2.769 3.327 2.769 5.947 0 1.55-.348 2.922-1.043 4.119-.695 1.196-1.84 2.295-3.435 3.298-1.777 1.094-7.747 2.689-17.91 4.785 3.076.274 5.685.695 7.827 1.265 2.142.57 3.845 1.458 5.11 2.666 1.265 1.208 1.897 2.837 1.897 4.888 0 2.233-.974 4.454-2.922 6.665-1.949 2.21-4.666 4.027-8.152 5.451-3.486 1.424-7.36 2.136-11.621 2.136-3.054 0-5.423-.472-7.11-1.418-1.686-.946-2.529-2.148-2.529-3.606 0-.843.274-1.737.82-2.683a10.116 10.116 0 0 1 1.949-2.444c.752-.684 1.39-1.025 1.914-1.025.319 0 .478.114.478.341 0 .16-.114.468-.342.923-.227.228-.341.479-.341.752 0 .547.53 1.014 1.589 1.402 1.06.387 2.421.58 4.084.58 2.28 0 4.49-.256 6.631-.768 2.142-.513 4.062-1.185 5.76-2.017 1.697-.832 3.042-1.715 4.033-2.649.991-.934 1.487-1.789 1.487-2.563 0-1.573-1.009-2.644-3.025-3.213-2.017-.57-5.065-.855-9.143-.855-1.39 0-2.729.12-4.016.36-1.288.238-1.909.358-1.863.358-.342 0-.513-.285-.513-.854 0-.89.245-2.028.735-3.418.49-1.39 1.065-2.302 1.726-2.735.41-.273 2-.65 4.768-1.128 2.769-.478 5.15-.928 7.144-1.35 1.993-.421 4.369-1.133 7.126-2.136 1.732-.66 3.03-1.43 3.897-2.307.865-.877 1.298-1.67 1.298-2.376 0-1.777-2.198-2.666-6.596-2.666-2.142 0-4.227.131-6.255.393-2.028.262-3.618.581-4.768.957s-1.726.735-1.726 1.077c0 .296.12.536.359.718.239.182.478.319.717.41.24.091.633.228 1.18.41.136.046.273.143.41.29a.714.714 0 0 1 .205.496c0 .638-2.381.9-7.144.786Z" />
			</g>

		</g>
	</svg>



