<?xml version="1.0" encoding="UTF-8"?>
<svg width="700pt" height="700pt" version="1.1" viewBox="0 0 700 700" xmlns="http://w3.org/2000/svg">
 <g>
  <path d="m350 422.33c-74.043 0-148.07-43.312-234.71-129.94-3.5078-3.2266-5.5508-7.7461-5.6523-12.512-0.10156-4.7656 1.7422-9.3672 5.1133-12.738 3.3672-3.375 7.9648-5.2266 12.73-5.1328 4.7695 0.097657 9.2891 2.1328 12.52 5.6367 158.93 158.86 260.96 158.93 420 0 4.4453-4.293 10.824-5.9219 16.785-4.2891 5.9609 1.6328 10.617 6.2891 12.25 12.25 1.6328 5.9609 0.003906 12.34-4.2891 16.785-86.68 86.605-160.74 129.94-234.75 129.94z"/>
  <path d="m572.34 297.5c-4.625-0.003906-9.0586-1.8438-12.336-5.1094-81.828-81.777-146.02-118.51-208.25-119.14h-1.5234c-63 0-127.96 36.75-210.26 119.11-4.4453 4.293-10.824 5.9219-16.785 4.2891-5.9609-1.6328-10.617-6.2891-12.25-12.25-1.6328-5.9609-0.003907-12.34 4.2891-16.785 89.531-89.336 162.04-129.36 235.04-129.36h1.8711c72.066 0.68359 143.8 40.582 232.57 129.36h0.003907c3.2891 3.2812 5.1367 7.7344 5.1406 12.379 0.003907 4.6484-1.8438 9.1016-5.1289 12.387s-7.7383 5.1289-12.387 5.125z"/>
  <path d="m350 371.98c-24.395 0-47.789-9.6914-65.039-26.941s-26.941-40.645-26.941-65.039 9.6914-47.789 26.941-65.039 40.645-26.941 65.039-26.941 47.789 9.6914 65.039 26.941 26.941 40.645 26.941 65.039c-0.027344 24.387-9.7266 47.766-26.973 65.008-17.242 17.246-40.621 26.945-65.008 26.973zm0-148.96c-15.113 0-29.605 6.0039-40.289 16.691-10.688 10.684-16.691 25.176-16.691 40.289s6.0039 29.605 16.691 40.289c10.684 10.688 25.176 16.691 40.289 16.691s29.605-6.0039 40.289-16.691c10.688-10.684 16.691-25.176 16.691-40.289-0.019531-15.105-6.0273-29.59-16.711-40.27-10.68-10.684-25.164-16.691-40.27-16.711z"/>
 </g>
</svg>
